<?xml version="1.0" encoding="UTF-8" standalone="no"?><!DOCTYPE svg PUBLIC "-//W3C//DTD SVG 1.1//EN" "http://www.w3.org/Graphics/SVG/1.1/DTD/svg11.dtd"><!-- Generated by graphviz version 2.40.1 (20161225.0304)
 --><!-- Title: Tree Pages: 1 --><svg xmlns="http://www.w3.org/2000/svg" xmlns:xlink="http://www.w3.org/1999/xlink" width="3950pt" height="723pt" viewBox="0.00 0.00 3950.10 723.20">
<g id="graph0" class="graph" transform="scale(1 1) rotate(0) translate(4 719.2)">
<title>Tree</title>
<polygon fill="#ffffff" stroke="transparent" points="-4,4 -4,-719.2 3946.103,-719.2 3946.103,4 -4,4"/>
<!-- 0 -->
<g id="node1" class="node">
<title>0</title>
<path fill="#ea995e" stroke="#000000" d="M1962.3387,-715.2C1962.3387,-715.2 1841.5469,-715.2 1841.5469,-715.2 1835.5469,-715.2 1829.5469,-709.2 1829.5469,-703.2 1829.5469,-703.2 1829.5469,-635.2 1829.5469,-635.2 1829.5469,-629.2 1835.5469,-623.2 1841.5469,-623.2 1841.5469,-623.2 1962.3387,-623.2 1962.3387,-623.2 1968.3387,-623.2 1974.3387,-629.2 1974.3387,-635.2 1974.3387,-635.2 1974.3387,-703.2 1974.3387,-703.2 1974.3387,-709.2 1968.3387,-715.2 1962.3387,-715.2"/>
<text text-anchor="start" x="1837.7451" y="-698.6" font-family="Helvetica,sans-Serif" font-size="14.00" fill="#000000">PageValues ≤ 0.945</text>
<text text-anchor="start" x="1865.5652" y="-681.8" font-family="Helvetica,sans-Serif" font-size="14.00" fill="#000000">gini = 0.268</text>
<text text-anchor="start" x="1852.3422" y="-665" font-family="Helvetica,sans-Serif" font-size="14.00" fill="#000000">samples = 8543</text>
<text text-anchor="start" x="1838.3261" y="-648.2" font-family="Helvetica,sans-Serif" font-size="14.00" fill="#000000">value = [7183, 1360]</text>
<text text-anchor="start" x="1860.9081" y="-631.4" font-family="Helvetica,sans-Serif" font-size="14.00" fill="#000000">class = False</text>
</g>
<!-- 1 -->
<g id="node2" class="node">
<title>1</title>
<path fill="#e68742" stroke="#000000" d="M1443.8944,-587.2C1443.8944,-587.2 1331.9912,-587.2 1331.9912,-587.2 1325.9912,-587.2 1319.9912,-581.2 1319.9912,-575.2 1319.9912,-575.2 1319.9912,-507.2 1319.9912,-507.2 1319.9912,-501.2 1325.9912,-495.2 1331.9912,-495.2 1331.9912,-495.2 1443.8944,-495.2 1443.8944,-495.2 1449.8944,-495.2 1455.8944,-501.2 1455.8944,-507.2 1455.8944,-507.2 1455.8944,-575.2 1455.8944,-575.2 1455.8944,-581.2 1449.8944,-587.2 1443.8944,-587.2"/>
<text text-anchor="start" x="1349.8159" y="-570.6" font-family="Helvetica,sans-Serif" font-size="14.00" fill="#000000">Month ≤ 6.5</text>
<text text-anchor="start" x="1351.5652" y="-553.8" font-family="Helvetica,sans-Serif" font-size="14.00" fill="#000000">gini = 0.081</text>
<text text-anchor="start" x="1338.3422" y="-537" font-family="Helvetica,sans-Serif" font-size="14.00" fill="#000000">samples = 6654</text>
<text text-anchor="start" x="1328.2174" y="-520.2" font-family="Helvetica,sans-Serif" font-size="14.00" fill="#000000">value = [6374, 280]</text>
<text text-anchor="start" x="1346.9081" y="-503.4" font-family="Helvetica,sans-Serif" font-size="14.00" fill="#000000">class = False</text>
</g>
<!-- 0&#45;&gt;1 -->
<g id="edge1" class="edge">
<title>0-&gt;1</title>
<path fill="none" stroke="#000000" d="M1829.6609,-651.1998C1733.5565,-627.2672 1564.379,-585.1374 1465.6241,-560.5448"/>
<polygon fill="#000000" stroke="#000000" points="1466.2538,-557.0947 1455.7043,-558.0745 1464.5622,-563.8873 1466.2538,-557.0947"/>
<text text-anchor="middle" x="1468.5863" y="-575.3" font-family="Helvetica,sans-Serif" font-size="14.00" fill="#000000">True</text>
</g>
<!-- 30 -->
<g id="node31" class="node">
<title>30</title>
<path fill="#cde6f8" stroke="#000000" d="M2381.8275,-587.2C2381.8275,-587.2 2268.0581,-587.2 2268.0581,-587.2 2262.0581,-587.2 2256.0581,-581.2 2256.0581,-575.2 2256.0581,-575.2 2256.0581,-507.2 2256.0581,-507.2 2256.0581,-501.2 2262.0581,-495.2 2268.0581,-495.2 2268.0581,-495.2 2381.8275,-495.2 2381.8275,-495.2 2387.8275,-495.2 2393.8275,-501.2 2393.8275,-507.2 2393.8275,-507.2 2393.8275,-575.2 2393.8275,-575.2 2393.8275,-581.2 2387.8275,-587.2 2381.8275,-587.2"/>
<text text-anchor="start" x="2264.2507" y="-570.6" font-family="Helvetica,sans-Serif" font-size="14.00" fill="#000000">BounceRates ≤ 0.0</text>
<text text-anchor="start" x="2292.4565" y="-553.8" font-family="Helvetica,sans-Serif" font-size="14.00" fill="#000000">gini = 0.49</text>
<text text-anchor="start" x="2275.3422" y="-537" font-family="Helvetica,sans-Serif" font-size="14.00" fill="#000000">samples = 1889</text>
<text text-anchor="start" x="2265.2174" y="-520.2" font-family="Helvetica,sans-Serif" font-size="14.00" fill="#000000">value = [809, 1080]</text>
<text text-anchor="start" x="2283.9081" y="-503.4" font-family="Helvetica,sans-Serif" font-size="14.00" fill="#000000">class = False</text>
</g>
<!-- 0&#45;&gt;30 -->
<g id="edge30" class="edge">
<title>0-&gt;30</title>
<path fill="none" stroke="#000000" d="M1974.1785,-647.3415C2049.8712,-624.4368 2168.4037,-588.5688 2246.3837,-564.972"/>
<polygon fill="#000000" stroke="#000000" points="2247.6026,-568.26 2256.1603,-562.0136 2245.5751,-561.56 2247.6026,-568.26"/>
<text text-anchor="middle" x="2244.3603" y="-579.8536" font-family="Helvetica,sans-Serif" font-size="14.00" fill="#000000">False</text>
</g>
<!-- 2 -->
<g id="node3" class="node">
<title>2</title>
<path fill="#e5833c" stroke="#000000" d="M732.6114,-459.2C732.6114,-459.2 629.2742,-459.2 629.2742,-459.2 623.2742,-459.2 617.2742,-453.2 617.2742,-447.2 617.2742,-447.2 617.2742,-379.2 617.2742,-379.2 617.2742,-373.2 623.2742,-367.2 629.2742,-367.2 629.2742,-367.2 732.6114,-367.2 732.6114,-367.2 738.6114,-367.2 744.6114,-373.2 744.6114,-379.2 744.6114,-379.2 744.6114,-447.2 744.6114,-447.2 744.6114,-453.2 738.6114,-459.2 732.6114,-459.2"/>
<text text-anchor="start" x="642.8159" y="-442.6" font-family="Helvetica,sans-Serif" font-size="14.00" fill="#000000">Month ≤ 4.5</text>
<text text-anchor="start" x="644.5652" y="-425.8" font-family="Helvetica,sans-Serif" font-size="14.00" fill="#000000">gini = 0.031</text>
<text text-anchor="start" x="631.3422" y="-409" font-family="Helvetica,sans-Serif" font-size="14.00" fill="#000000">samples = 4639</text>
<text text-anchor="start" x="625.1087" y="-392.2" font-family="Helvetica,sans-Serif" font-size="14.00" fill="#000000">value = [4566, 73]</text>
<text text-anchor="start" x="639.9081" y="-375.4" font-family="Helvetica,sans-Serif" font-size="14.00" fill="#000000">class = False</text>
</g>
<!-- 1&#45;&gt;2 -->
<g id="edge2" class="edge">
<title>1-&gt;2</title>
<path fill="none" stroke="#000000" d="M1320.1527,-528.9268C1187.0508,-504.8292 892.5382,-451.5086 754.7367,-426.5601"/>
<polygon fill="#000000" stroke="#000000" points="755.1542,-423.0789 744.6906,-424.7413 753.9071,-429.9669 755.1542,-423.0789"/>
</g>
<!-- 15 -->
<g id="node16" class="node">
<title>15</title>
<path fill="#e88f50" stroke="#000000" d="M1454.5505,-459.2C1454.5505,-459.2 1321.3351,-459.2 1321.3351,-459.2 1315.3351,-459.2 1309.3351,-453.2 1309.3351,-447.2 1309.3351,-447.2 1309.3351,-379.2 1309.3351,-379.2 1309.3351,-373.2 1315.3351,-367.2 1321.3351,-367.2 1321.3351,-367.2 1454.5505,-367.2 1454.5505,-367.2 1460.5505,-367.2 1466.5505,-373.2 1466.5505,-379.2 1466.5505,-379.2 1466.5505,-447.2 1466.5505,-447.2 1466.5505,-453.2 1460.5505,-459.2 1454.5505,-459.2"/>
<text text-anchor="start" x="1317.1392" y="-442.6" font-family="Helvetica,sans-Serif" font-size="14.00" fill="#000000">ProductRelated ≤ 75.5</text>
<text text-anchor="start" x="1351.5652" y="-425.8" font-family="Helvetica,sans-Serif" font-size="14.00" fill="#000000">gini = 0.184</text>
<text text-anchor="start" x="1338.3422" y="-409" font-family="Helvetica,sans-Serif" font-size="14.00" fill="#000000">samples = 2015</text>
<text text-anchor="start" x="1328.2174" y="-392.2" font-family="Helvetica,sans-Serif" font-size="14.00" fill="#000000">value = [1808, 207]</text>
<text text-anchor="start" x="1346.9081" y="-375.4" font-family="Helvetica,sans-Serif" font-size="14.00" fill="#000000">class = False</text>
</g>
<!-- 1&#45;&gt;15 -->
<g id="edge15" class="edge">
<title>1-&gt;15</title>
<path fill="none" stroke="#000000" d="M1387.9428,-494.9891C1387.9428,-486.7417 1387.9428,-478.0661 1387.9428,-469.5724"/>
<polygon fill="#000000" stroke="#000000" points="1391.4429,-469.3431 1387.9428,-459.3431 1384.4429,-469.3431 1391.4429,-469.3431"/>
</g>
<!-- 3 -->
<g id="node4" class="node">
<title>3</title>
<path fill="#e68742" stroke="#000000" d="M439.687,-331.2C439.687,-331.2 322.1986,-331.2 322.1986,-331.2 316.1986,-331.2 310.1986,-325.2 310.1986,-319.2 310.1986,-319.2 310.1986,-251.2 310.1986,-251.2 310.1986,-245.2 316.1986,-239.2 322.1986,-239.2 322.1986,-239.2 439.687,-239.2 439.687,-239.2 445.687,-239.2 451.687,-245.2 451.687,-251.2 451.687,-251.2 451.687,-319.2 451.687,-319.2 451.687,-325.2 445.687,-331.2 439.687,-331.2"/>
<text text-anchor="start" x="318.3208" y="-314.6" font-family="Helvetica,sans-Serif" font-size="14.00" fill="#000000">Administrative ≤ 1.5</text>
<text text-anchor="start" x="348.4565" y="-297.8" font-family="Helvetica,sans-Serif" font-size="14.00" fill="#000000">gini = 0.08</text>
<text text-anchor="start" x="331.3422" y="-281" font-family="Helvetica,sans-Serif" font-size="14.00" fill="#000000">samples = 1718</text>
<text text-anchor="start" x="325.1087" y="-264.2" font-family="Helvetica,sans-Serif" font-size="14.00" fill="#000000">value = [1646, 72]</text>
<text text-anchor="start" x="339.9081" y="-247.4" font-family="Helvetica,sans-Serif" font-size="14.00" fill="#000000">class = False</text>
</g>
<!-- 2&#45;&gt;3 -->
<g id="edge3" class="edge">
<title>2-&gt;3</title>
<path fill="none" stroke="#000000" d="M616.9532,-385.8978C571.3639,-366.4463 509.7647,-340.164 460.9296,-319.3277"/>
<polygon fill="#000000" stroke="#000000" points="462.2256,-316.0755 451.6543,-315.3702 459.4785,-322.5139 462.2256,-316.0755"/>
</g>
<!-- 10 -->
<g id="node11" class="node">
<title>10</title>
<path fill="#e58139" stroke="#000000" d="M737.0561,-331.2C737.0561,-331.2 624.8295,-331.2 624.8295,-331.2 618.8295,-331.2 612.8295,-325.2 612.8295,-319.2 612.8295,-319.2 612.8295,-251.2 612.8295,-251.2 612.8295,-245.2 618.8295,-239.2 624.8295,-239.2 624.8295,-239.2 737.0561,-239.2 737.0561,-239.2 743.0561,-239.2 749.0561,-245.2 749.0561,-251.2 749.0561,-251.2 749.0561,-319.2 749.0561,-319.2 749.0561,-325.2 743.0561,-331.2 737.0561,-331.2"/>
<text text-anchor="start" x="620.6364" y="-314.6" font-family="Helvetica,sans-Serif" font-size="14.00" fill="#000000">PageValues ≤ 0.06</text>
<text text-anchor="start" x="644.5652" y="-297.8" font-family="Helvetica,sans-Serif" font-size="14.00" fill="#000000">gini = 0.001</text>
<text text-anchor="start" x="631.3422" y="-281" font-family="Helvetica,sans-Serif" font-size="14.00" fill="#000000">samples = 2921</text>
<text text-anchor="start" x="629" y="-264.2" font-family="Helvetica,sans-Serif" font-size="14.00" fill="#000000">value = [2920, 1]</text>
<text text-anchor="start" x="639.9081" y="-247.4" font-family="Helvetica,sans-Serif" font-size="14.00" fill="#000000">class = False</text>
</g>
<!-- 2&#45;&gt;10 -->
<g id="edge10" class="edge">
<title>2-&gt;10</title>
<path fill="none" stroke="#000000" d="M680.9428,-366.9891C680.9428,-358.7417 680.9428,-350.0661 680.9428,-341.5724"/>
<polygon fill="#000000" stroke="#000000" points="684.4429,-341.3431 680.9428,-331.3431 677.4429,-341.3431 684.4429,-341.3431"/>
</g>
<!-- 4 -->
<g id="node5" class="node">
<title>4</title>
<path fill="#e6833d" stroke="#000000" d="M230.1996,-203.2C230.1996,-203.2 119.686,-203.2 119.686,-203.2 113.686,-203.2 107.686,-197.2 107.686,-191.2 107.686,-191.2 107.686,-123.2 107.686,-123.2 107.686,-117.2 113.686,-111.2 119.686,-111.2 119.686,-111.2 230.1996,-111.2 230.1996,-111.2 236.1996,-111.2 242.1996,-117.2 242.1996,-123.2 242.1996,-123.2 242.1996,-191.2 242.1996,-191.2 242.1996,-197.2 236.1996,-203.2 230.1996,-203.2"/>
<text text-anchor="start" x="115.8145" y="-186.6" font-family="Helvetica,sans-Serif" font-size="14.00" fill="#000000">Informational ≤ 0.5</text>
<text text-anchor="start" x="138.5652" y="-169.8" font-family="Helvetica,sans-Serif" font-size="14.00" fill="#000000">gini = 0.038</text>
<text text-anchor="start" x="125.3422" y="-153" font-family="Helvetica,sans-Serif" font-size="14.00" fill="#000000">samples = 1092</text>
<text text-anchor="start" x="119.1087" y="-136.2" font-family="Helvetica,sans-Serif" font-size="14.00" fill="#000000">value = [1071, 21]</text>
<text text-anchor="start" x="133.9081" y="-119.4" font-family="Helvetica,sans-Serif" font-size="14.00" fill="#000000">class = False</text>
</g>
<!-- 3&#45;&gt;4 -->
<g id="edge4" class="edge">
<title>3-&gt;4</title>
<path fill="none" stroke="#000000" d="M310.0493,-241.1497C290.8883,-229.2438 270.0801,-216.3145 250.6654,-204.2509"/>
<polygon fill="#000000" stroke="#000000" points="252.4888,-201.2633 242.1477,-198.9584 248.7943,-207.209 252.4888,-201.2633"/>
</g>
<!-- 7 -->
<g id="node8" class="node">
<title>7</title>
<path fill="#e78c4b" stroke="#000000" d="M489.5755,-203.2C489.5755,-203.2 272.3101,-203.2 272.3101,-203.2 266.3101,-203.2 260.3101,-197.2 260.3101,-191.2 260.3101,-191.2 260.3101,-123.2 260.3101,-123.2 260.3101,-117.2 266.3101,-111.2 272.3101,-111.2 272.3101,-111.2 489.5755,-111.2 489.5755,-111.2 495.5755,-111.2 501.5755,-117.2 501.5755,-123.2 501.5755,-123.2 501.5755,-191.2 501.5755,-191.2 501.5755,-197.2 495.5755,-203.2 489.5755,-203.2"/>
<text text-anchor="start" x="268.1266" y="-186.6" font-family="Helvetica,sans-Serif" font-size="14.00" fill="#000000">ProductRelated_Duration ≤ 167.423</text>
<text text-anchor="start" x="348.4565" y="-169.8" font-family="Helvetica,sans-Serif" font-size="14.00" fill="#000000">gini = 0.15</text>
<text text-anchor="start" x="335.2335" y="-153" font-family="Helvetica,sans-Serif" font-size="14.00" fill="#000000">samples = 626</text>
<text text-anchor="start" x="329" y="-136.2" font-family="Helvetica,sans-Serif" font-size="14.00" fill="#000000">value = [575, 51]</text>
<text text-anchor="start" x="339.9081" y="-119.4" font-family="Helvetica,sans-Serif" font-size="14.00" fill="#000000">class = False</text>
</g>
<!-- 3&#45;&gt;7 -->
<g id="edge7" class="edge">
<title>3-&gt;7</title>
<path fill="none" stroke="#000000" d="M380.9428,-238.9891C380.9428,-230.7417 380.9428,-222.0661 380.9428,-213.5724"/>
<polygon fill="#000000" stroke="#000000" points="384.4429,-213.3431 380.9428,-203.3431 377.4429,-213.3431 384.4429,-213.3431"/>
</g>
<!-- 5 -->
<g id="node6" class="node">
<title>5</title>
<path fill="#e5833c" stroke="#000000" d="M107.8285,-75.3003C107.8285,-75.3003 12.0571,-75.3003 12.0571,-75.3003 6.0571,-75.3003 .0571,-69.3003 .0571,-63.3003 .0571,-63.3003 .0571,-11.8997 .0571,-11.8997 .0571,-5.8997 6.0571,.1003 12.0571,.1003 12.0571,.1003 107.8285,.1003 107.8285,.1003 113.8285,.1003 119.8285,-5.8997 119.8285,-11.8997 119.8285,-11.8997 119.8285,-63.3003 119.8285,-63.3003 119.8285,-69.3003 113.8285,-75.3003 107.8285,-75.3003"/>
<text text-anchor="start" x="23.5652" y="-58.6" font-family="Helvetica,sans-Serif" font-size="14.00" fill="#000000">gini = 0.026</text>
<text text-anchor="start" x="14.2335" y="-41.8" font-family="Helvetica,sans-Serif" font-size="14.00" fill="#000000">samples = 982</text>
<text text-anchor="start" x="8" y="-25" font-family="Helvetica,sans-Serif" font-size="14.00" fill="#000000">value = [969, 13]</text>
<text text-anchor="start" x="18.9081" y="-8.2" font-family="Helvetica,sans-Serif" font-size="14.00" fill="#000000">class = False</text>
</g>
<!-- 4&#45;&gt;5 -->
<g id="edge5" class="edge">
<title>4-&gt;5</title>
<path fill="none" stroke="#000000" d="M130.4808,-110.9595C121.5037,-101.6233 112.0791,-91.8217 103.146,-82.5313"/>
<polygon fill="#000000" stroke="#000000" points="105.5592,-79.9913 96.1051,-75.2088 100.5133,-84.8431 105.5592,-79.9913"/>
</g>
<!-- 6 -->
<g id="node7" class="node">
<title>6</title>
<path fill="#e78b49" stroke="#000000" d="M238.0458,-75.3003C238.0458,-75.3003 149.8398,-75.3003 149.8398,-75.3003 143.8398,-75.3003 137.8398,-69.3003 137.8398,-63.3003 137.8398,-63.3003 137.8398,-11.8997 137.8398,-11.8997 137.8398,-5.8997 143.8398,.1003 149.8398,.1003 149.8398,.1003 238.0458,.1003 238.0458,.1003 244.0458,.1003 250.0458,-5.8997 250.0458,-11.8997 250.0458,-11.8997 250.0458,-63.3003 250.0458,-63.3003 250.0458,-69.3003 244.0458,-75.3003 238.0458,-75.3003"/>
<text text-anchor="start" x="157.5652" y="-58.6" font-family="Helvetica,sans-Serif" font-size="14.00" fill="#000000">gini = 0.135</text>
<text text-anchor="start" x="148.2335" y="-41.8" font-family="Helvetica,sans-Serif" font-size="14.00" fill="#000000">samples = 110</text>
<text text-anchor="start" x="145.8913" y="-25" font-family="Helvetica,sans-Serif" font-size="14.00" fill="#000000">value = [102, 8]</text>
<text text-anchor="start" x="152.9081" y="-8.2" font-family="Helvetica,sans-Serif" font-size="14.00" fill="#000000">class = False</text>
</g>
<!-- 4&#45;&gt;6 -->
<g id="edge6" class="edge">
<title>4-&gt;6</title>
<path fill="none" stroke="#000000" d="M182.2887,-110.9595C183.625,-102.5477 185.0214,-93.7581 186.3643,-85.3049"/>
<polygon fill="#000000" stroke="#000000" points="189.8558,-85.6341 187.9682,-75.2088 182.9425,-84.5358 189.8558,-85.6341"/>
</g>
<!-- 8 -->
<g id="node9" class="node">
<title>8</title>
<path fill="#eb9d64" stroke="#000000" d="M406.0458,-75.3003C406.0458,-75.3003 317.8398,-75.3003 317.8398,-75.3003 311.8398,-75.3003 305.8398,-69.3003 305.8398,-63.3003 305.8398,-63.3003 305.8398,-11.8997 305.8398,-11.8997 305.8398,-5.8997 311.8398,.1003 317.8398,.1003 317.8398,.1003 406.0458,.1003 406.0458,.1003 412.0458,.1003 418.0458,-5.8997 418.0458,-11.8997 418.0458,-11.8997 418.0458,-63.3003 418.0458,-63.3003 418.0458,-69.3003 412.0458,-75.3003 406.0458,-75.3003"/>
<text text-anchor="start" x="325.5652" y="-58.6" font-family="Helvetica,sans-Serif" font-size="14.00" fill="#000000">gini = 0.294</text>
<text text-anchor="start" x="316.2335" y="-41.8" font-family="Helvetica,sans-Serif" font-size="14.00" fill="#000000">samples = 106</text>
<text text-anchor="start" x="313.8913" y="-25" font-family="Helvetica,sans-Serif" font-size="14.00" fill="#000000">value = [87, 19]</text>
<text text-anchor="start" x="320.9081" y="-8.2" font-family="Helvetica,sans-Serif" font-size="14.00" fill="#000000">class = False</text>
</g>
<!-- 7&#45;&gt;8 -->
<g id="edge8" class="edge">
<title>7-&gt;8</title>
<path fill="none" stroke="#000000" d="M373.5969,-110.9595C372.2606,-102.5477 370.8642,-93.7581 369.5213,-85.3049"/>
<polygon fill="#000000" stroke="#000000" points="372.9431,-84.5358 367.9174,-75.2088 366.0298,-85.6341 372.9431,-84.5358"/>
</g>
<!-- 9 -->
<g id="node10" class="node">
<title>9</title>
<path fill="#e78946" stroke="#000000" d="M543.8285,-75.3003C543.8285,-75.3003 448.0571,-75.3003 448.0571,-75.3003 442.0571,-75.3003 436.0571,-69.3003 436.0571,-63.3003 436.0571,-63.3003 436.0571,-11.8997 436.0571,-11.8997 436.0571,-5.8997 442.0571,.1003 448.0571,.1003 448.0571,.1003 543.8285,.1003 543.8285,.1003 549.8285,.1003 555.8285,-5.8997 555.8285,-11.8997 555.8285,-11.8997 555.8285,-63.3003 555.8285,-63.3003 555.8285,-69.3003 549.8285,-75.3003 543.8285,-75.3003"/>
<text text-anchor="start" x="459.5652" y="-58.6" font-family="Helvetica,sans-Serif" font-size="14.00" fill="#000000">gini = 0.116</text>
<text text-anchor="start" x="450.2335" y="-41.8" font-family="Helvetica,sans-Serif" font-size="14.00" fill="#000000">samples = 520</text>
<text text-anchor="start" x="444" y="-25" font-family="Helvetica,sans-Serif" font-size="14.00" fill="#000000">value = [488, 32]</text>
<text text-anchor="start" x="454.9081" y="-8.2" font-family="Helvetica,sans-Serif" font-size="14.00" fill="#000000">class = False</text>
</g>
<!-- 7&#45;&gt;9 -->
<g id="edge9" class="edge">
<title>7-&gt;9</title>
<path fill="none" stroke="#000000" d="M425.4048,-110.9595C434.3819,-101.6233 443.8065,-91.8217 452.7396,-82.5313"/>
<polygon fill="#000000" stroke="#000000" points="455.3723,-84.8431 459.7805,-75.2088 450.3264,-79.9913 455.3723,-84.8431"/>
</g>
<!-- 11 -->
<g id="node12" class="node">
<title>11</title>
<path fill="#e58139" stroke="#000000" d="M627.8285,-194.9003C627.8285,-194.9003 532.0571,-194.9003 532.0571,-194.9003 526.0571,-194.9003 520.0571,-188.9003 520.0571,-182.9003 520.0571,-182.9003 520.0571,-131.4997 520.0571,-131.4997 520.0571,-125.4997 526.0571,-119.4997 532.0571,-119.4997 532.0571,-119.4997 627.8285,-119.4997 627.8285,-119.4997 633.8285,-119.4997 639.8285,-125.4997 639.8285,-131.4997 639.8285,-131.4997 639.8285,-182.9003 639.8285,-182.9003 639.8285,-188.9003 633.8285,-194.9003 627.8285,-194.9003"/>
<text text-anchor="start" x="551.3478" y="-178.2" font-family="Helvetica,sans-Serif" font-size="14.00" fill="#000000">gini = 0.0</text>
<text text-anchor="start" x="530.3422" y="-161.4" font-family="Helvetica,sans-Serif" font-size="14.00" fill="#000000">samples = 2910</text>
<text text-anchor="start" x="528" y="-144.6" font-family="Helvetica,sans-Serif" font-size="14.00" fill="#000000">value = [2910, 0]</text>
<text text-anchor="start" x="538.9081" y="-127.8" font-family="Helvetica,sans-Serif" font-size="14.00" fill="#000000">class = False</text>
</g>
<!-- 10&#45;&gt;11 -->
<g id="edge11" class="edge">
<title>10-&gt;11</title>
<path fill="none" stroke="#000000" d="M644.4795,-238.9891C635.2057,-227.2362 625.2459,-214.6138 615.9928,-202.8872"/>
<polygon fill="#000000" stroke="#000000" points="618.659,-200.6158 609.7169,-194.9335 613.1637,-204.952 618.659,-200.6158"/>
</g>
<!-- 12 -->
<g id="node13" class="node">
<title>12</title>
<path fill="#e88e4d" stroke="#000000" d="M895.8581,-203.2C895.8581,-203.2 670.0275,-203.2 670.0275,-203.2 664.0275,-203.2 658.0275,-197.2 658.0275,-191.2 658.0275,-191.2 658.0275,-123.2 658.0275,-123.2 658.0275,-117.2 664.0275,-111.2 670.0275,-111.2 670.0275,-111.2 895.8581,-111.2 895.8581,-111.2 901.8581,-111.2 907.8581,-117.2 907.8581,-123.2 907.8581,-123.2 907.8581,-191.2 907.8581,-191.2 907.8581,-197.2 901.8581,-203.2 895.8581,-203.2"/>
<text text-anchor="start" x="666.2353" y="-186.6" font-family="Helvetica,sans-Serif" font-size="14.00" fill="#000000">ProductRelated_Duration ≤ 2476.061</text>
<text text-anchor="start" x="746.5652" y="-169.8" font-family="Helvetica,sans-Serif" font-size="14.00" fill="#000000">gini = 0.165</text>
<text text-anchor="start" x="741.1248" y="-153" font-family="Helvetica,sans-Serif" font-size="14.00" fill="#000000">samples = 11</text>
<text text-anchor="start" x="738.7826" y="-136.2" font-family="Helvetica,sans-Serif" font-size="14.00" fill="#000000">value = [10, 1]</text>
<text text-anchor="start" x="741.9081" y="-119.4" font-family="Helvetica,sans-Serif" font-size="14.00" fill="#000000">class = False</text>
</g>
<!-- 10&#45;&gt;12 -->
<g id="edge12" class="edge">
<title>10-&gt;12</title>
<path fill="none" stroke="#000000" d="M717.7671,-238.9891C724.9171,-230.0166 732.4708,-220.5375 739.8024,-211.3369"/>
<polygon fill="#000000" stroke="#000000" points="742.6777,-213.3449 746.1725,-203.3431 737.2032,-208.9825 742.6777,-213.3449"/>
</g>
<!-- 13 -->
<g id="node14" class="node">
<title>13</title>
<path fill="#eeab7b" stroke="#000000" d="M704.0122,-75.3003C704.0122,-75.3003 629.8734,-75.3003 629.8734,-75.3003 623.8734,-75.3003 617.8734,-69.3003 617.8734,-63.3003 617.8734,-63.3003 617.8734,-11.8997 617.8734,-11.8997 617.8734,-5.8997 623.8734,.1003 629.8734,.1003 629.8734,.1003 704.0122,.1003 704.0122,.1003 710.0122,.1003 716.0122,-5.8997 716.0122,-11.8997 716.0122,-11.8997 716.0122,-63.3003 716.0122,-63.3003 716.0122,-69.3003 710.0122,-75.3003 704.0122,-75.3003"/>
<text text-anchor="start" x="630.5652" y="-58.6" font-family="Helvetica,sans-Serif" font-size="14.00" fill="#000000">gini = 0.375</text>
<text text-anchor="start" x="629.0161" y="-41.8" font-family="Helvetica,sans-Serif" font-size="14.00" fill="#000000">samples = 4</text>
<text text-anchor="start" x="626.6739" y="-25" font-family="Helvetica,sans-Serif" font-size="14.00" fill="#000000">value = [3, 1]</text>
<text text-anchor="start" x="625.9081" y="-8.2" font-family="Helvetica,sans-Serif" font-size="14.00" fill="#000000">class = False</text>
</g>
<!-- 12&#45;&gt;13 -->
<g id="edge13" class="edge">
<title>12-&gt;13</title>
<path fill="none" stroke="#000000" d="M738.0942,-110.9595C729.039,-101.6233 719.5324,-91.8217 710.5216,-82.5313"/>
<polygon fill="#000000" stroke="#000000" points="712.8942,-79.9503 703.4196,-75.2088 707.8694,-84.8239 712.8942,-79.9503"/>
</g>
<!-- 14 -->
<g id="node15" class="node">
<title>14</title>
<path fill="#e58139" stroke="#000000" d="M820.0122,-75.3003C820.0122,-75.3003 745.8734,-75.3003 745.8734,-75.3003 739.8734,-75.3003 733.8734,-69.3003 733.8734,-63.3003 733.8734,-63.3003 733.8734,-11.8997 733.8734,-11.8997 733.8734,-5.8997 739.8734,.1003 745.8734,.1003 745.8734,.1003 820.0122,.1003 820.0122,.1003 826.0122,.1003 832.0122,-5.8997 832.0122,-11.8997 832.0122,-11.8997 832.0122,-63.3003 832.0122,-63.3003 832.0122,-69.3003 826.0122,-75.3003 820.0122,-75.3003"/>
<text text-anchor="start" x="754.3478" y="-58.6" font-family="Helvetica,sans-Serif" font-size="14.00" fill="#000000">gini = 0.0</text>
<text text-anchor="start" x="745.0161" y="-41.8" font-family="Helvetica,sans-Serif" font-size="14.00" fill="#000000">samples = 7</text>
<text text-anchor="start" x="742.6739" y="-25" font-family="Helvetica,sans-Serif" font-size="14.00" fill="#000000">value = [7, 0]</text>
<text text-anchor="start" x="741.9081" y="-8.2" font-family="Helvetica,sans-Serif" font-size="14.00" fill="#000000">class = False</text>
</g>
<!-- 12&#45;&gt;14 -->
<g id="edge14" class="edge">
<title>12-&gt;14</title>
<path fill="none" stroke="#000000" d="M782.9428,-110.9595C782.9428,-102.5477 782.9428,-93.7581 782.9428,-85.3049"/>
<polygon fill="#000000" stroke="#000000" points="786.4429,-85.2088 782.9428,-75.2088 779.4429,-85.2089 786.4429,-85.2088"/>
</g>
<!-- 16 -->
<g id="node17" class="node">
<title>16</title>
<path fill="#e78c4b" stroke="#000000" d="M1323.8944,-331.2C1323.8944,-331.2 1211.9912,-331.2 1211.9912,-331.2 1205.9912,-331.2 1199.9912,-325.2 1199.9912,-319.2 1199.9912,-319.2 1199.9912,-251.2 1199.9912,-251.2 1199.9912,-245.2 1205.9912,-239.2 1211.9912,-239.2 1211.9912,-239.2 1323.8944,-239.2 1323.8944,-239.2 1329.8944,-239.2 1335.8944,-245.2 1335.8944,-251.2 1335.8944,-251.2 1335.8944,-319.2 1335.8944,-319.2 1335.8944,-325.2 1329.8944,-331.2 1323.8944,-331.2"/>
<text text-anchor="start" x="1211.5347" y="-314.6" font-family="Helvetica,sans-Serif" font-size="14.00" fill="#000000">ExitRates ≤ 0.072</text>
<text text-anchor="start" x="1231.5652" y="-297.8" font-family="Helvetica,sans-Serif" font-size="14.00" fill="#000000">gini = 0.152</text>
<text text-anchor="start" x="1218.3422" y="-281" font-family="Helvetica,sans-Serif" font-size="14.00" fill="#000000">samples = 1762</text>
<text text-anchor="start" x="1208.2174" y="-264.2" font-family="Helvetica,sans-Serif" font-size="14.00" fill="#000000">value = [1616, 146]</text>
<text text-anchor="start" x="1226.9081" y="-247.4" font-family="Helvetica,sans-Serif" font-size="14.00" fill="#000000">class = False</text>
</g>
<!-- 15&#45;&gt;16 -->
<g id="edge16" class="edge">
<title>15-&gt;16</title>
<path fill="none" stroke="#000000" d="M1344.62,-366.9891C1336.0384,-357.8354 1326.9624,-348.1543 1318.1738,-338.7797"/>
<polygon fill="#000000" stroke="#000000" points="1320.5948,-336.2447 1311.202,-331.3431 1315.488,-341.0323 1320.5948,-336.2447"/>
</g>
<!-- 23 -->
<g id="node24" class="node">
<title>23</title>
<path fill="#eda978" stroke="#000000" d="M1555.8285,-331.2C1555.8285,-331.2 1460.0571,-331.2 1460.0571,-331.2 1454.0571,-331.2 1448.0571,-325.2 1448.0571,-319.2 1448.0571,-319.2 1448.0571,-251.2 1448.0571,-251.2 1448.0571,-245.2 1454.0571,-239.2 1460.0571,-239.2 1460.0571,-239.2 1555.8285,-239.2 1555.8285,-239.2 1561.8285,-239.2 1567.8285,-245.2 1567.8285,-251.2 1567.8285,-251.2 1567.8285,-319.2 1567.8285,-319.2 1567.8285,-325.2 1561.8285,-331.2 1555.8285,-331.2"/>
<text text-anchor="start" x="1469.8159" y="-314.6" font-family="Helvetica,sans-Serif" font-size="14.00" fill="#000000">Month ≤ 7.5</text>
<text text-anchor="start" x="1471.5652" y="-297.8" font-family="Helvetica,sans-Serif" font-size="14.00" fill="#000000">gini = 0.366</text>
<text text-anchor="start" x="1462.2335" y="-281" font-family="Helvetica,sans-Serif" font-size="14.00" fill="#000000">samples = 253</text>
<text text-anchor="start" x="1456" y="-264.2" font-family="Helvetica,sans-Serif" font-size="14.00" fill="#000000">value = [192, 61]</text>
<text text-anchor="start" x="1466.9081" y="-247.4" font-family="Helvetica,sans-Serif" font-size="14.00" fill="#000000">class = False</text>
</g>
<!-- 15&#45;&gt;23 -->
<g id="edge23" class="edge">
<title>15-&gt;23</title>
<path fill="none" stroke="#000000" d="M1431.2656,-366.9891C1439.8472,-357.8354 1448.9232,-348.1543 1457.7118,-338.7797"/>
<polygon fill="#000000" stroke="#000000" points="1460.3976,-341.0323 1464.6836,-331.3431 1455.2908,-336.2447 1460.3976,-341.0323"/>
</g>
<!-- 17 -->
<g id="node18" class="node">
<title>17</title>
<path fill="#e88e4d" stroke="#000000" d="M1124.9454,-203.2C1124.9454,-203.2 938.9402,-203.2 938.9402,-203.2 932.9402,-203.2 926.9402,-197.2 926.9402,-191.2 926.9402,-191.2 926.9402,-123.2 926.9402,-123.2 926.9402,-117.2 932.9402,-111.2 938.9402,-111.2 938.9402,-111.2 1124.9454,-111.2 1124.9454,-111.2 1130.9454,-111.2 1136.9454,-117.2 1136.9454,-123.2 1136.9454,-123.2 1136.9454,-191.2 1136.9454,-191.2 1136.9454,-197.2 1130.9454,-203.2 1124.9454,-203.2"/>
<text text-anchor="start" x="934.6918" y="-186.6" font-family="Helvetica,sans-Serif" font-size="14.00" fill="#000000">ProductRelated_Duration ≤ 2.5</text>
<text text-anchor="start" x="995.5652" y="-169.8" font-family="Helvetica,sans-Serif" font-size="14.00" fill="#000000">gini = 0.167</text>
<text text-anchor="start" x="982.3422" y="-153" font-family="Helvetica,sans-Serif" font-size="14.00" fill="#000000">samples = 1485</text>
<text text-anchor="start" x="972.2174" y="-136.2" font-family="Helvetica,sans-Serif" font-size="14.00" fill="#000000">value = [1348, 137]</text>
<text text-anchor="start" x="990.9081" y="-119.4" font-family="Helvetica,sans-Serif" font-size="14.00" fill="#000000">class = False</text>
</g>
<!-- 16&#45;&gt;17 -->
<g id="edge17" class="edge">
<title>16-&gt;17</title>
<path fill="none" stroke="#000000" d="M1199.9984,-248.3488C1176.9559,-235.8512 1150.7874,-221.6581 1126.0762,-208.2554"/>
<polygon fill="#000000" stroke="#000000" points="1127.5055,-205.049 1117.0465,-203.3579 1124.1681,-211.2022 1127.5055,-205.049"/>
</g>
<!-- 20 -->
<g id="node21" class="node">
<title>20</title>
<path fill="#e68540" stroke="#000000" d="M1368.7122,-203.2C1368.7122,-203.2 1167.1734,-203.2 1167.1734,-203.2 1161.1734,-203.2 1155.1734,-197.2 1155.1734,-191.2 1155.1734,-191.2 1155.1734,-123.2 1155.1734,-123.2 1155.1734,-117.2 1161.1734,-111.2 1167.1734,-111.2 1167.1734,-111.2 1368.7122,-111.2 1368.7122,-111.2 1374.7122,-111.2 1380.7122,-117.2 1380.7122,-123.2 1380.7122,-123.2 1380.7122,-191.2 1380.7122,-191.2 1380.7122,-197.2 1374.7122,-203.2 1368.7122,-203.2"/>
<text text-anchor="start" x="1163.3082" y="-186.6" font-family="Helvetica,sans-Serif" font-size="14.00" fill="#000000">Administrative_Duration ≤ 24.389</text>
<text text-anchor="start" x="1231.5652" y="-169.8" font-family="Helvetica,sans-Serif" font-size="14.00" fill="#000000">gini = 0.063</text>
<text text-anchor="start" x="1222.2335" y="-153" font-family="Helvetica,sans-Serif" font-size="14.00" fill="#000000">samples = 277</text>
<text text-anchor="start" x="1219.8913" y="-136.2" font-family="Helvetica,sans-Serif" font-size="14.00" fill="#000000">value = [268, 9]</text>
<text text-anchor="start" x="1226.9081" y="-119.4" font-family="Helvetica,sans-Serif" font-size="14.00" fill="#000000">class = False</text>
</g>
<!-- 16&#45;&gt;20 -->
<g id="edge20" class="edge">
<title>16-&gt;20</title>
<path fill="none" stroke="#000000" d="M1267.9428,-238.9891C1267.9428,-230.7417 1267.9428,-222.0661 1267.9428,-213.5724"/>
<polygon fill="#000000" stroke="#000000" points="1271.4429,-213.3431 1267.9428,-203.3431 1264.4429,-213.3431 1271.4429,-213.3431"/>
</g>
<!-- 18 -->
<g id="node19" class="node">
<title>18</title>
<path fill="#9ccef2" stroke="#000000" d="M936.0122,-75.3003C936.0122,-75.3003 861.8734,-75.3003 861.8734,-75.3003 855.8734,-75.3003 849.8734,-69.3003 849.8734,-63.3003 849.8734,-63.3003 849.8734,-11.8997 849.8734,-11.8997 849.8734,-5.8997 855.8734,.1003 861.8734,.1003 861.8734,.1003 936.0122,.1003 936.0122,.1003 942.0122,.1003 948.0122,-5.8997 948.0122,-11.8997 948.0122,-11.8997 948.0122,-63.3003 948.0122,-63.3003 948.0122,-69.3003 942.0122,-75.3003 936.0122,-75.3003"/>
<text text-anchor="start" x="862.5652" y="-58.6" font-family="Helvetica,sans-Serif" font-size="14.00" fill="#000000">gini = 0.444</text>
<text text-anchor="start" x="861.0161" y="-41.8" font-family="Helvetica,sans-Serif" font-size="14.00" fill="#000000">samples = 9</text>
<text text-anchor="start" x="858.6739" y="-25" font-family="Helvetica,sans-Serif" font-size="14.00" fill="#000000">value = [3, 6]</text>
<text text-anchor="start" x="857.9081" y="-8.2" font-family="Helvetica,sans-Serif" font-size="14.00" fill="#000000">class = False</text>
</g>
<!-- 17&#45;&gt;18 -->
<g id="edge18" class="edge">
<title>17-&gt;18</title>
<path fill="none" stroke="#000000" d="M980.5215,-110.9595C969.9337,-101.4385 958.8076,-91.4333 948.2951,-81.98"/>
<polygon fill="#000000" stroke="#000000" points="950.5414,-79.2929 940.7653,-75.2088 945.8608,-84.4979 950.5414,-79.2929"/>
</g>
<!-- 19 -->
<g id="node20" class="node">
<title>19</title>
<path fill="#e88d4c" stroke="#000000" d="M1089.8944,-75.3003C1089.8944,-75.3003 977.9912,-75.3003 977.9912,-75.3003 971.9912,-75.3003 965.9912,-69.3003 965.9912,-63.3003 965.9912,-63.3003 965.9912,-11.8997 965.9912,-11.8997 965.9912,-5.8997 971.9912,.1003 977.9912,.1003 977.9912,.1003 1089.8944,.1003 1089.8944,.1003 1095.8944,.1003 1101.8944,-5.8997 1101.8944,-11.8997 1101.8944,-11.8997 1101.8944,-63.3003 1101.8944,-63.3003 1101.8944,-69.3003 1095.8944,-75.3003 1089.8944,-75.3003"/>
<text text-anchor="start" x="997.5652" y="-58.6" font-family="Helvetica,sans-Serif" font-size="14.00" fill="#000000">gini = 0.162</text>
<text text-anchor="start" x="984.3422" y="-41.8" font-family="Helvetica,sans-Serif" font-size="14.00" fill="#000000">samples = 1476</text>
<text text-anchor="start" x="974.2174" y="-25" font-family="Helvetica,sans-Serif" font-size="14.00" fill="#000000">value = [1345, 131]</text>
<text text-anchor="start" x="992.9081" y="-8.2" font-family="Helvetica,sans-Serif" font-size="14.00" fill="#000000">class = False</text>
</g>
<!-- 17&#45;&gt;19 -->
<g id="edge19" class="edge">
<title>17-&gt;19</title>
<path fill="none" stroke="#000000" d="M1032.7161,-110.9595C1032.8567,-102.5477 1033.0037,-93.7581 1033.1451,-85.3049"/>
<polygon fill="#000000" stroke="#000000" points="1036.6461,-85.266 1033.3139,-75.2088 1029.6471,-85.1489 1036.6461,-85.266"/>
</g>
<!-- 21 -->
<g id="node22" class="node">
<title>21</title>
<path fill="#e6843e" stroke="#000000" d="M1220.0458,-75.3003C1220.0458,-75.3003 1131.8398,-75.3003 1131.8398,-75.3003 1125.8398,-75.3003 1119.8398,-69.3003 1119.8398,-63.3003 1119.8398,-63.3003 1119.8398,-11.8997 1119.8398,-11.8997 1119.8398,-5.8997 1125.8398,.1003 1131.8398,.1003 1131.8398,.1003 1220.0458,.1003 1220.0458,.1003 1226.0458,.1003 1232.0458,-5.8997 1232.0458,-11.8997 1232.0458,-11.8997 1232.0458,-63.3003 1232.0458,-63.3003 1232.0458,-69.3003 1226.0458,-75.3003 1220.0458,-75.3003"/>
<text text-anchor="start" x="1139.5652" y="-58.6" font-family="Helvetica,sans-Serif" font-size="14.00" fill="#000000">gini = 0.052</text>
<text text-anchor="start" x="1130.2335" y="-41.8" font-family="Helvetica,sans-Serif" font-size="14.00" fill="#000000">samples = 261</text>
<text text-anchor="start" x="1127.8913" y="-25" font-family="Helvetica,sans-Serif" font-size="14.00" fill="#000000">value = [254, 7]</text>
<text text-anchor="start" x="1134.9081" y="-8.2" font-family="Helvetica,sans-Serif" font-size="14.00" fill="#000000">class = False</text>
</g>
<!-- 20&#45;&gt;21 -->
<g id="edge21" class="edge">
<title>20-&gt;21</title>
<path fill="none" stroke="#000000" d="M1232.3732,-110.9595C1225.4048,-101.9007 1218.0994,-92.4036 1211.1432,-83.3605"/>
<polygon fill="#000000" stroke="#000000" points="1213.744,-81.0011 1204.8727,-75.2088 1208.1956,-85.2691 1213.744,-81.0011"/>
</g>
<!-- 22 -->
<g id="node23" class="node">
<title>22</title>
<path fill="#e99355" stroke="#000000" d="M1342.2637,-75.3003C1342.2637,-75.3003 1261.6219,-75.3003 1261.6219,-75.3003 1255.6219,-75.3003 1249.6219,-69.3003 1249.6219,-63.3003 1249.6219,-63.3003 1249.6219,-11.8997 1249.6219,-11.8997 1249.6219,-5.8997 1255.6219,.1003 1261.6219,.1003 1261.6219,.1003 1342.2637,.1003 1342.2637,.1003 1348.2637,.1003 1354.2637,-5.8997 1354.2637,-11.8997 1354.2637,-11.8997 1354.2637,-63.3003 1354.2637,-63.3003 1354.2637,-69.3003 1348.2637,-75.3003 1342.2637,-75.3003"/>
<text text-anchor="start" x="1265.5652" y="-58.6" font-family="Helvetica,sans-Serif" font-size="14.00" fill="#000000">gini = 0.219</text>
<text text-anchor="start" x="1260.1248" y="-41.8" font-family="Helvetica,sans-Serif" font-size="14.00" fill="#000000">samples = 16</text>
<text text-anchor="start" x="1257.7826" y="-25" font-family="Helvetica,sans-Serif" font-size="14.00" fill="#000000">value = [14, 2]</text>
<text text-anchor="start" x="1260.9081" y="-8.2" font-family="Helvetica,sans-Serif" font-size="14.00" fill="#000000">class = False</text>
</g>
<!-- 20&#45;&gt;22 -->
<g id="edge22" class="edge">
<title>20-&gt;22</title>
<path fill="none" stroke="#000000" d="M1281.0881,-110.9595C1283.5057,-102.4553 1286.0331,-93.5648 1288.4604,-85.0264"/>
<polygon fill="#000000" stroke="#000000" points="1291.8834,-85.7848 1291.2513,-75.2088 1285.1502,-83.8706 1291.8834,-85.7848"/>
</g>
<!-- 24 -->
<g id="node25" class="node">
<title>24</title>
<path fill="#efb185" stroke="#000000" d="M1605.2248,-203.2C1605.2248,-203.2 1410.6608,-203.2 1410.6608,-203.2 1404.6608,-203.2 1398.6608,-197.2 1398.6608,-191.2 1398.6608,-191.2 1398.6608,-123.2 1398.6608,-123.2 1398.6608,-117.2 1404.6608,-111.2 1410.6608,-111.2 1410.6608,-111.2 1605.2248,-111.2 1605.2248,-111.2 1611.2248,-111.2 1617.2248,-117.2 1617.2248,-123.2 1617.2248,-123.2 1617.2248,-191.2 1617.2248,-191.2 1617.2248,-197.2 1611.2248,-203.2 1605.2248,-203.2"/>
<text text-anchor="start" x="1406.8019" y="-186.6" font-family="Helvetica,sans-Serif" font-size="14.00" fill="#000000">Informational_Duration ≤ 37.667</text>
<text text-anchor="start" x="1479.3478" y="-169.8" font-family="Helvetica,sans-Serif" font-size="14.00" fill="#000000">gini = 0.4</text>
<text text-anchor="start" x="1462.2335" y="-153" font-family="Helvetica,sans-Serif" font-size="14.00" fill="#000000">samples = 206</text>
<text text-anchor="start" x="1456" y="-136.2" font-family="Helvetica,sans-Serif" font-size="14.00" fill="#000000">value = [149, 57]</text>
<text text-anchor="start" x="1466.9081" y="-119.4" font-family="Helvetica,sans-Serif" font-size="14.00" fill="#000000">class = False</text>
</g>
<!-- 23&#45;&gt;24 -->
<g id="edge24" class="edge">
<title>23-&gt;24</title>
<path fill="none" stroke="#000000" d="M1507.9428,-238.9891C1507.9428,-230.7417 1507.9428,-222.0661 1507.9428,-213.5724"/>
<polygon fill="#000000" stroke="#000000" points="1511.4429,-213.3431 1507.9428,-203.3431 1504.4429,-213.3431 1511.4429,-213.3431"/>
</g>
<!-- 27 -->
<g id="node28" class="node">
<title>27</title>
<path fill="#e78d4b" stroke="#000000" d="M1776.3922,-203.2C1776.3922,-203.2 1647.4934,-203.2 1647.4934,-203.2 1641.4934,-203.2 1635.4934,-197.2 1635.4934,-191.2 1635.4934,-191.2 1635.4934,-123.2 1635.4934,-123.2 1635.4934,-117.2 1641.4934,-111.2 1647.4934,-111.2 1647.4934,-111.2 1776.3922,-111.2 1776.3922,-111.2 1782.3922,-111.2 1788.3922,-117.2 1788.3922,-123.2 1788.3922,-123.2 1788.3922,-191.2 1788.3922,-191.2 1788.3922,-197.2 1782.3922,-203.2 1776.3922,-203.2"/>
<text text-anchor="start" x="1643.4681" y="-186.6" font-family="Helvetica,sans-Serif" font-size="14.00" fill="#000000">BounceRates ≤ 0.001</text>
<text text-anchor="start" x="1675.5652" y="-169.8" font-family="Helvetica,sans-Serif" font-size="14.00" fill="#000000">gini = 0.156</text>
<text text-anchor="start" x="1670.1248" y="-153" font-family="Helvetica,sans-Serif" font-size="14.00" fill="#000000">samples = 47</text>
<text text-anchor="start" x="1667.7826" y="-136.2" font-family="Helvetica,sans-Serif" font-size="14.00" fill="#000000">value = [43, 4]</text>
<text text-anchor="start" x="1670.9081" y="-119.4" font-family="Helvetica,sans-Serif" font-size="14.00" fill="#000000">class = False</text>
</g>
<!-- 23&#45;&gt;27 -->
<g id="edge27" class="edge">
<title>23-&gt;27</title>
<path fill="none" stroke="#000000" d="M1568.0462,-247.4881C1587.466,-235.3031 1609.3383,-221.5793 1630.0575,-208.579"/>
<polygon fill="#000000" stroke="#000000" points="1631.9359,-211.5324 1638.5463,-203.2527 1628.2154,-205.6029 1631.9359,-211.5324"/>
</g>
<!-- 25 -->
<g id="node26" class="node">
<title>25</title>
<path fill="#f2be99" stroke="#000000" d="M1472.0458,-75.3003C1472.0458,-75.3003 1383.8398,-75.3003 1383.8398,-75.3003 1377.8398,-75.3003 1371.8398,-69.3003 1371.8398,-63.3003 1371.8398,-63.3003 1371.8398,-11.8997 1371.8398,-11.8997 1371.8398,-5.8997 1377.8398,.1003 1383.8398,.1003 1383.8398,.1003 1472.0458,.1003 1472.0458,.1003 1478.0458,.1003 1484.0458,-5.8997 1484.0458,-11.8997 1484.0458,-11.8997 1484.0458,-63.3003 1484.0458,-63.3003 1484.0458,-69.3003 1478.0458,-75.3003 1472.0458,-75.3003"/>
<text text-anchor="start" x="1391.5652" y="-58.6" font-family="Helvetica,sans-Serif" font-size="14.00" fill="#000000">gini = 0.439</text>
<text text-anchor="start" x="1382.2335" y="-41.8" font-family="Helvetica,sans-Serif" font-size="14.00" fill="#000000">samples = 132</text>
<text text-anchor="start" x="1379.8913" y="-25" font-family="Helvetica,sans-Serif" font-size="14.00" fill="#000000">value = [89, 43]</text>
<text text-anchor="start" x="1386.9081" y="-8.2" font-family="Helvetica,sans-Serif" font-size="14.00" fill="#000000">class = False</text>
</g>
<!-- 24&#45;&gt;25 -->
<g id="edge25" class="edge">
<title>24-&gt;25</title>
<path fill="none" stroke="#000000" d="M1477.0127,-110.9595C1471.0151,-101.9931 1464.7303,-92.5973 1458.7371,-83.6374"/>
<polygon fill="#000000" stroke="#000000" points="1461.5683,-81.5748 1453.0992,-75.2088 1455.7499,-85.4667 1461.5683,-81.5748"/>
</g>
<!-- 26 -->
<g id="node27" class="node">
<title>26</title>
<path fill="#eb9e67" stroke="#000000" d="M1602.0458,-75.3003C1602.0458,-75.3003 1513.8398,-75.3003 1513.8398,-75.3003 1507.8398,-75.3003 1501.8398,-69.3003 1501.8398,-63.3003 1501.8398,-63.3003 1501.8398,-11.8997 1501.8398,-11.8997 1501.8398,-5.8997 1507.8398,.1003 1513.8398,.1003 1513.8398,.1003 1602.0458,.1003 1602.0458,.1003 1608.0458,.1003 1614.0458,-5.8997 1614.0458,-11.8997 1614.0458,-11.8997 1614.0458,-63.3003 1614.0458,-63.3003 1614.0458,-69.3003 1608.0458,-75.3003 1602.0458,-75.3003"/>
<text text-anchor="start" x="1521.5652" y="-58.6" font-family="Helvetica,sans-Serif" font-size="14.00" fill="#000000">gini = 0.307</text>
<text text-anchor="start" x="1516.1248" y="-41.8" font-family="Helvetica,sans-Serif" font-size="14.00" fill="#000000">samples = 74</text>
<text text-anchor="start" x="1509.8913" y="-25" font-family="Helvetica,sans-Serif" font-size="14.00" fill="#000000">value = [60, 14]</text>
<text text-anchor="start" x="1516.9081" y="-8.2" font-family="Helvetica,sans-Serif" font-size="14.00" fill="#000000">class = False</text>
</g>
<!-- 24&#45;&gt;26 -->
<g id="edge26" class="edge">
<title>24-&gt;26</title>
<path fill="none" stroke="#000000" d="M1527.2741,-110.9595C1530.9067,-102.2704 1534.7078,-93.1781 1538.3483,-84.47"/>
<polygon fill="#000000" stroke="#000000" points="1541.5921,-85.785 1542.22,-75.2088 1535.1337,-83.085 1541.5921,-85.785"/>
</g>
<!-- 28 -->
<g id="node29" class="node">
<title>28</title>
<path fill="#f0b78e" stroke="#000000" d="M1719.5795,-75.3003C1719.5795,-75.3003 1644.3061,-75.3003 1644.3061,-75.3003 1638.3061,-75.3003 1632.3061,-69.3003 1632.3061,-63.3003 1632.3061,-63.3003 1632.3061,-11.8997 1632.3061,-11.8997 1632.3061,-5.8997 1638.3061,.1003 1644.3061,.1003 1644.3061,.1003 1719.5795,.1003 1719.5795,.1003 1725.5795,.1003 1731.5795,-5.8997 1731.5795,-11.8997 1731.5795,-11.8997 1731.5795,-63.3003 1731.5795,-63.3003 1731.5795,-69.3003 1725.5795,-75.3003 1719.5795,-75.3003"/>
<text text-anchor="start" x="1649.4565" y="-58.6" font-family="Helvetica,sans-Serif" font-size="14.00" fill="#000000">gini = 0.42</text>
<text text-anchor="start" x="1640.1248" y="-41.8" font-family="Helvetica,sans-Serif" font-size="14.00" fill="#000000">samples = 10</text>
<text text-anchor="start" x="1641.6739" y="-25" font-family="Helvetica,sans-Serif" font-size="14.00" fill="#000000">value = [7, 3]</text>
<text text-anchor="start" x="1640.9081" y="-8.2" font-family="Helvetica,sans-Serif" font-size="14.00" fill="#000000">class = False</text>
</g>
<!-- 27&#45;&gt;28 -->
<g id="edge28" class="edge">
<title>27-&gt;28</title>
<path fill="none" stroke="#000000" d="M1700.344,-110.9595C1698.2108,-102.4553 1695.9808,-93.5648 1693.839,-85.0264"/>
<polygon fill="#000000" stroke="#000000" points="1697.2043,-84.0568 1691.3765,-75.2088 1690.4147,-85.7599 1697.2043,-84.0568"/>
</g>
<!-- 29 -->
<g id="node30" class="node">
<title>29</title>
<path fill="#e6843e" stroke="#000000" d="M1842.2637,-75.3003C1842.2637,-75.3003 1761.6219,-75.3003 1761.6219,-75.3003 1755.6219,-75.3003 1749.6219,-69.3003 1749.6219,-63.3003 1749.6219,-63.3003 1749.6219,-11.8997 1749.6219,-11.8997 1749.6219,-5.8997 1755.6219,.1003 1761.6219,.1003 1761.6219,.1003 1842.2637,.1003 1842.2637,.1003 1848.2637,.1003 1854.2637,-5.8997 1854.2637,-11.8997 1854.2637,-11.8997 1854.2637,-63.3003 1854.2637,-63.3003 1854.2637,-69.3003 1848.2637,-75.3003 1842.2637,-75.3003"/>
<text text-anchor="start" x="1765.5652" y="-58.6" font-family="Helvetica,sans-Serif" font-size="14.00" fill="#000000">gini = 0.053</text>
<text text-anchor="start" x="1760.1248" y="-41.8" font-family="Helvetica,sans-Serif" font-size="14.00" fill="#000000">samples = 37</text>
<text text-anchor="start" x="1757.7826" y="-25" font-family="Helvetica,sans-Serif" font-size="14.00" fill="#000000">value = [36, 1]</text>
<text text-anchor="start" x="1760.9081" y="-8.2" font-family="Helvetica,sans-Serif" font-size="14.00" fill="#000000">class = False</text>
</g>
<!-- 27&#45;&gt;29 -->
<g id="edge29" class="edge">
<title>27-&gt;29</title>
<path fill="none" stroke="#000000" d="M1746.7391,-110.9595C1753.556,-101.9007 1760.7027,-92.4036 1767.5077,-83.3605"/>
<polygon fill="#000000" stroke="#000000" points="1770.4256,-85.3037 1773.6418,-75.2088 1764.8324,-81.0947 1770.4256,-85.3037"/>
</g>
<!-- 31 -->
<g id="node32" class="node">
<title>31</title>
<path fill="#81c1ee" stroke="#000000" d="M2389.1209,-459.2C2389.1209,-459.2 2260.7647,-459.2 2260.7647,-459.2 2254.7647,-459.2 2248.7647,-453.2 2248.7647,-447.2 2248.7647,-447.2 2248.7647,-379.2 2248.7647,-379.2 2248.7647,-373.2 2254.7647,-367.2 2260.7647,-367.2 2260.7647,-367.2 2389.1209,-367.2 2389.1209,-367.2 2395.1209,-367.2 2401.1209,-373.2 2401.1209,-379.2 2401.1209,-379.2 2401.1209,-447.2 2401.1209,-447.2 2401.1209,-453.2 2395.1209,-459.2 2389.1209,-459.2"/>
<text text-anchor="start" x="2256.8538" y="-442.6" font-family="Helvetica,sans-Serif" font-size="14.00" fill="#000000">PageValues ≤ 19.785</text>
<text text-anchor="start" x="2288.5652" y="-425.8" font-family="Helvetica,sans-Serif" font-size="14.00" fill="#000000">gini = 0.391</text>
<text text-anchor="start" x="2279.2335" y="-409" font-family="Helvetica,sans-Serif" font-size="14.00" fill="#000000">samples = 826</text>
<text text-anchor="start" x="2269.1087" y="-392.2" font-family="Helvetica,sans-Serif" font-size="14.00" fill="#000000">value = [220, 606]</text>
<text text-anchor="start" x="2283.9081" y="-375.4" font-family="Helvetica,sans-Serif" font-size="14.00" fill="#000000">class = False</text>
</g>
<!-- 30&#45;&gt;31 -->
<g id="edge31" class="edge">
<title>30-&gt;31</title>
<path fill="none" stroke="#000000" d="M2324.9428,-494.9891C2324.9428,-486.7417 2324.9428,-478.0661 2324.9428,-469.5724"/>
<polygon fill="#000000" stroke="#000000" points="2328.4429,-469.3431 2324.9428,-459.3431 2321.4429,-469.3431 2328.4429,-469.3431"/>
</g>
<!-- 46 -->
<g id="node47" class="node">
<title>46</title>
<path fill="#fae6d8" stroke="#000000" d="M3315.6114,-459.2C3315.6114,-459.2 3212.2742,-459.2 3212.2742,-459.2 3206.2742,-459.2 3200.2742,-453.2 3200.2742,-447.2 3200.2742,-447.2 3200.2742,-379.2 3200.2742,-379.2 3200.2742,-373.2 3206.2742,-367.2 3212.2742,-367.2 3212.2742,-367.2 3315.6114,-367.2 3315.6114,-367.2 3321.6114,-367.2 3327.6114,-373.2 3327.6114,-379.2 3327.6114,-379.2 3327.6114,-447.2 3327.6114,-447.2 3327.6114,-453.2 3321.6114,-459.2 3315.6114,-459.2"/>
<text text-anchor="start" x="3225.8159" y="-442.6" font-family="Helvetica,sans-Serif" font-size="14.00" fill="#000000">Month ≤ 6.5</text>
<text text-anchor="start" x="3227.5652" y="-425.8" font-family="Helvetica,sans-Serif" font-size="14.00" fill="#000000">gini = 0.494</text>
<text text-anchor="start" x="3214.3422" y="-409" font-family="Helvetica,sans-Serif" font-size="14.00" fill="#000000">samples = 1063</text>
<text text-anchor="start" x="3208.1087" y="-392.2" font-family="Helvetica,sans-Serif" font-size="14.00" fill="#000000">value = [589, 474]</text>
<text text-anchor="start" x="3222.9081" y="-375.4" font-family="Helvetica,sans-Serif" font-size="14.00" fill="#000000">class = False</text>
</g>
<!-- 30&#45;&gt;46 -->
<g id="edge46" class="edge">
<title>30-&gt;46</title>
<path fill="none" stroke="#000000" d="M2393.9897,-531.7879C2566.0985,-508.3268 3013.0109,-447.4058 3190.1029,-423.2655"/>
<polygon fill="#000000" stroke="#000000" points="3190.6718,-426.7204 3200.1074,-421.9017 3189.7263,-419.7846 3190.6718,-426.7204"/>
</g>
<!-- 32 -->
<g id="node33" class="node">
<title>32</title>
<path fill="#d5eaf9" stroke="#000000" d="M2317.687,-331.2C2317.687,-331.2 2200.1986,-331.2 2200.1986,-331.2 2194.1986,-331.2 2188.1986,-325.2 2188.1986,-319.2 2188.1986,-319.2 2188.1986,-251.2 2188.1986,-251.2 2188.1986,-245.2 2194.1986,-239.2 2200.1986,-239.2 2200.1986,-239.2 2317.687,-239.2 2317.687,-239.2 2323.687,-239.2 2329.687,-245.2 2329.687,-251.2 2329.687,-251.2 2329.687,-319.2 2329.687,-319.2 2329.687,-325.2 2323.687,-331.2 2317.687,-331.2"/>
<text text-anchor="start" x="2196.3208" y="-314.6" font-family="Helvetica,sans-Serif" font-size="14.00" fill="#000000">Administrative ≤ 4.5</text>
<text text-anchor="start" x="2222.5652" y="-297.8" font-family="Helvetica,sans-Serif" font-size="14.00" fill="#000000">gini = 0.493</text>
<text text-anchor="start" x="2213.2335" y="-281" font-family="Helvetica,sans-Serif" font-size="14.00" fill="#000000">samples = 325</text>
<text text-anchor="start" x="2203.1087" y="-264.2" font-family="Helvetica,sans-Serif" font-size="14.00" fill="#000000">value = [143, 182]</text>
<text text-anchor="start" x="2217.9081" y="-247.4" font-family="Helvetica,sans-Serif" font-size="14.00" fill="#000000">class = False</text>
</g>
<!-- 31&#45;&gt;32 -->
<g id="edge32" class="edge">
<title>31-&gt;32</title>
<path fill="none" stroke="#000000" d="M2301.1153,-366.9891C2296.6758,-358.3791 2291.9957,-349.3026 2287.4329,-340.4535"/>
<polygon fill="#000000" stroke="#000000" points="2290.4291,-338.6271 2282.7353,-331.3431 2284.2075,-341.8352 2290.4291,-338.6271"/>
</g>
<!-- 39 -->
<g id="node40" class="node">
<title>39</title>
<path fill="#5dafea" stroke="#000000" d="M2546.687,-331.2C2546.687,-331.2 2429.1986,-331.2 2429.1986,-331.2 2423.1986,-331.2 2417.1986,-325.2 2417.1986,-319.2 2417.1986,-319.2 2417.1986,-251.2 2417.1986,-251.2 2417.1986,-245.2 2423.1986,-239.2 2429.1986,-239.2 2429.1986,-239.2 2546.687,-239.2 2546.687,-239.2 2552.687,-239.2 2558.687,-245.2 2558.687,-251.2 2558.687,-251.2 2558.687,-319.2 2558.687,-319.2 2558.687,-325.2 2552.687,-331.2 2546.687,-331.2"/>
<text text-anchor="start" x="2425.3208" y="-314.6" font-family="Helvetica,sans-Serif" font-size="14.00" fill="#000000">Administrative ≤ 1.5</text>
<text text-anchor="start" x="2455.4565" y="-297.8" font-family="Helvetica,sans-Serif" font-size="14.00" fill="#000000">gini = 0.26</text>
<text text-anchor="start" x="2442.2335" y="-281" font-family="Helvetica,sans-Serif" font-size="14.00" fill="#000000">samples = 501</text>
<text text-anchor="start" x="2436" y="-264.2" font-family="Helvetica,sans-Serif" font-size="14.00" fill="#000000">value = [77, 424]</text>
<text text-anchor="start" x="2446.9081" y="-247.4" font-family="Helvetica,sans-Serif" font-size="14.00" fill="#000000">class = False</text>
</g>
<!-- 31&#45;&gt;39 -->
<g id="edge39" class="edge">
<title>31-&gt;39</title>
<path fill="none" stroke="#000000" d="M2383.7895,-366.9891C2395.9079,-357.4728 2408.752,-347.3866 2421.1289,-337.6674"/>
<polygon fill="#000000" stroke="#000000" points="2423.4792,-340.2719 2429.1824,-331.3431 2419.1559,-334.7665 2423.4792,-340.2719"/>
</g>
<!-- 33 -->
<g id="node34" class="node">
<title>33</title>
<path fill="#92c9f1" stroke="#000000" d="M2099.7995,-203.2C2099.7995,-203.2 2000.0861,-203.2 2000.0861,-203.2 1994.0861,-203.2 1988.0861,-197.2 1988.0861,-191.2 1988.0861,-191.2 1988.0861,-123.2 1988.0861,-123.2 1988.0861,-117.2 1994.0861,-111.2 2000.0861,-111.2 2000.0861,-111.2 2099.7995,-111.2 2099.7995,-111.2 2105.7995,-111.2 2111.7995,-117.2 2111.7995,-123.2 2111.7995,-123.2 2111.7995,-191.2 2111.7995,-191.2 2111.7995,-197.2 2105.7995,-203.2 2099.7995,-203.2"/>
<text text-anchor="start" x="1996.2647" y="-186.6" font-family="Helvetica,sans-Serif" font-size="14.00" fill="#000000">VisitorType ≤ 1.5</text>
<text text-anchor="start" x="2013.5652" y="-169.8" font-family="Helvetica,sans-Serif" font-size="14.00" fill="#000000">gini = 0.427</text>
<text text-anchor="start" x="2004.2335" y="-153" font-family="Helvetica,sans-Serif" font-size="14.00" fill="#000000">samples = 194</text>
<text text-anchor="start" x="1998" y="-136.2" font-family="Helvetica,sans-Serif" font-size="14.00" fill="#000000">value = [60, 134]</text>
<text text-anchor="start" x="2008.9081" y="-119.4" font-family="Helvetica,sans-Serif" font-size="14.00" fill="#000000">class = False</text>
</g>
<!-- 32&#45;&gt;33 -->
<g id="edge33" class="edge">
<title>32-&gt;33</title>
<path fill="none" stroke="#000000" d="M2188.1849,-241.865C2166.335,-228.4833 2142.2803,-213.7512 2120.4475,-200.3799"/>
<polygon fill="#000000" stroke="#000000" points="2122.2366,-197.3714 2111.8808,-195.1333 2118.5806,-203.3408 2122.2366,-197.3714"/>
</g>
<!-- 36 -->
<g id="node37" class="node">
<title>36</title>
<path fill="#f4caac" stroke="#000000" d="M2325.5505,-203.2C2325.5505,-203.2 2192.3351,-203.2 2192.3351,-203.2 2186.3351,-203.2 2180.3351,-197.2 2180.3351,-191.2 2180.3351,-191.2 2180.3351,-123.2 2180.3351,-123.2 2180.3351,-117.2 2186.3351,-111.2 2192.3351,-111.2 2192.3351,-111.2 2325.5505,-111.2 2325.5505,-111.2 2331.5505,-111.2 2337.5505,-117.2 2337.5505,-123.2 2337.5505,-123.2 2337.5505,-191.2 2337.5505,-191.2 2337.5505,-197.2 2331.5505,-203.2 2325.5505,-203.2"/>
<text text-anchor="start" x="2188.1392" y="-186.6" font-family="Helvetica,sans-Serif" font-size="14.00" fill="#000000">ProductRelated ≤ 46.0</text>
<text text-anchor="start" x="2222.5652" y="-169.8" font-family="Helvetica,sans-Serif" font-size="14.00" fill="#000000">gini = 0.464</text>
<text text-anchor="start" x="2213.2335" y="-153" font-family="Helvetica,sans-Serif" font-size="14.00" fill="#000000">samples = 131</text>
<text text-anchor="start" x="2210.8913" y="-136.2" font-family="Helvetica,sans-Serif" font-size="14.00" fill="#000000">value = [83, 48]</text>
<text text-anchor="start" x="2217.9081" y="-119.4" font-family="Helvetica,sans-Serif" font-size="14.00" fill="#000000">class = False</text>
</g>
<!-- 32&#45;&gt;36 -->
<g id="edge36" class="edge">
<title>32-&gt;36</title>
<path fill="none" stroke="#000000" d="M2258.9428,-238.9891C2258.9428,-230.7417 2258.9428,-222.0661 2258.9428,-213.5724"/>
<polygon fill="#000000" stroke="#000000" points="2262.4429,-213.3431 2258.9428,-203.3431 2255.4429,-213.3431 2262.4429,-213.3431"/>
</g>
<!-- 34 -->
<g id="node35" class="node">
<title>34</title>
<path fill="#44a2e6" stroke="#000000" d="M1964.2637,-75.3003C1964.2637,-75.3003 1883.6219,-75.3003 1883.6219,-75.3003 1877.6219,-75.3003 1871.6219,-69.3003 1871.6219,-63.3003 1871.6219,-63.3003 1871.6219,-11.8997 1871.6219,-11.8997 1871.6219,-5.8997 1877.6219,.1003 1883.6219,.1003 1883.6219,.1003 1964.2637,.1003 1964.2637,.1003 1970.2637,.1003 1976.2637,-5.8997 1976.2637,-11.8997 1976.2637,-11.8997 1976.2637,-63.3003 1976.2637,-63.3003 1976.2637,-69.3003 1970.2637,-75.3003 1964.2637,-75.3003"/>
<text text-anchor="start" x="1895.3478" y="-58.6" font-family="Helvetica,sans-Serif" font-size="14.00" fill="#000000">gini = 0.1</text>
<text text-anchor="start" x="1882.1248" y="-41.8" font-family="Helvetica,sans-Serif" font-size="14.00" fill="#000000">samples = 38</text>
<text text-anchor="start" x="1879.7826" y="-25" font-family="Helvetica,sans-Serif" font-size="14.00" fill="#000000">value = [2, 36]</text>
<text text-anchor="start" x="1882.9081" y="-8.2" font-family="Helvetica,sans-Serif" font-size="14.00" fill="#000000">class = False</text>
</g>
<!-- 33&#45;&gt;34 -->
<g id="edge34" class="edge">
<title>33-&gt;34</title>
<path fill="none" stroke="#000000" d="M2001.2279,-110.9595C1991.2948,-101.5309 1980.8615,-91.6276 1970.9879,-82.2555"/>
<polygon fill="#000000" stroke="#000000" points="1973.2266,-79.5548 1963.5641,-75.2088 1968.4075,-84.6318 1973.2266,-79.5548"/>
</g>
<!-- 35 -->
<g id="node36" class="node">
<title>35</title>
<path fill="#aed7f4" stroke="#000000" d="M2094.0458,-75.3003C2094.0458,-75.3003 2005.8398,-75.3003 2005.8398,-75.3003 1999.8398,-75.3003 1993.8398,-69.3003 1993.8398,-63.3003 1993.8398,-63.3003 1993.8398,-11.8997 1993.8398,-11.8997 1993.8398,-5.8997 1999.8398,.1003 2005.8398,.1003 2005.8398,.1003 2094.0458,.1003 2094.0458,.1003 2100.0458,.1003 2106.0458,-5.8997 2106.0458,-11.8997 2106.0458,-11.8997 2106.0458,-63.3003 2106.0458,-63.3003 2106.0458,-69.3003 2100.0458,-75.3003 2094.0458,-75.3003"/>
<text text-anchor="start" x="2013.5652" y="-58.6" font-family="Helvetica,sans-Serif" font-size="14.00" fill="#000000">gini = 0.467</text>
<text text-anchor="start" x="2004.2335" y="-41.8" font-family="Helvetica,sans-Serif" font-size="14.00" fill="#000000">samples = 156</text>
<text text-anchor="start" x="2001.8913" y="-25" font-family="Helvetica,sans-Serif" font-size="14.00" fill="#000000">value = [58, 98]</text>
<text text-anchor="start" x="2008.9081" y="-8.2" font-family="Helvetica,sans-Serif" font-size="14.00" fill="#000000">class = False</text>
</g>
<!-- 33&#45;&gt;35 -->
<g id="edge35" class="edge">
<title>33-&gt;35</title>
<path fill="none" stroke="#000000" d="M2049.9428,-110.9595C2049.9428,-102.5477 2049.9428,-93.7581 2049.9428,-85.3049"/>
<polygon fill="#000000" stroke="#000000" points="2053.4429,-85.2088 2049.9428,-75.2088 2046.4429,-85.2089 2053.4429,-85.2088"/>
</g>
<!-- 37 -->
<g id="node38" class="node">
<title>37</title>
<path fill="#ffffff" stroke="#000000" d="M2224.0458,-75.3003C2224.0458,-75.3003 2135.8398,-75.3003 2135.8398,-75.3003 2129.8398,-75.3003 2123.8398,-69.3003 2123.8398,-63.3003 2123.8398,-63.3003 2123.8398,-11.8997 2123.8398,-11.8997 2123.8398,-5.8997 2129.8398,.1003 2135.8398,.1003 2135.8398,.1003 2224.0458,.1003 2224.0458,.1003 2230.0458,.1003 2236.0458,-5.8997 2236.0458,-11.8997 2236.0458,-11.8997 2236.0458,-63.3003 2236.0458,-63.3003 2236.0458,-69.3003 2230.0458,-75.3003 2224.0458,-75.3003"/>
<text text-anchor="start" x="2151.3478" y="-58.6" font-family="Helvetica,sans-Serif" font-size="14.00" fill="#000000">gini = 0.5</text>
<text text-anchor="start" x="2138.1248" y="-41.8" font-family="Helvetica,sans-Serif" font-size="14.00" fill="#000000">samples = 68</text>
<text text-anchor="start" x="2131.8913" y="-25" font-family="Helvetica,sans-Serif" font-size="14.00" fill="#000000">value = [34, 34]</text>
<text text-anchor="start" x="2138.9081" y="-8.2" font-family="Helvetica,sans-Serif" font-size="14.00" fill="#000000">class = False</text>
</g>
<!-- 36&#45;&gt;37 -->
<g id="edge37" class="edge">
<title>36-&gt;37</title>
<path fill="none" stroke="#000000" d="M2228.3993,-110.9595C2222.4767,-101.9931 2216.2705,-92.5973 2210.3521,-83.6374"/>
<polygon fill="#000000" stroke="#000000" points="2213.2167,-81.6238 2204.7847,-75.2088 2207.3759,-85.4819 2213.2167,-81.6238"/>
</g>
<!-- 38 -->
<g id="node39" class="node">
<title>38</title>
<path fill="#eca572" stroke="#000000" d="M2354.0458,-75.3003C2354.0458,-75.3003 2265.8398,-75.3003 2265.8398,-75.3003 2259.8398,-75.3003 2253.8398,-69.3003 2253.8398,-63.3003 2253.8398,-63.3003 2253.8398,-11.8997 2253.8398,-11.8997 2253.8398,-5.8997 2259.8398,.1003 2265.8398,.1003 2265.8398,.1003 2354.0458,.1003 2354.0458,.1003 2360.0458,.1003 2366.0458,-5.8997 2366.0458,-11.8997 2366.0458,-11.8997 2366.0458,-63.3003 2366.0458,-63.3003 2366.0458,-69.3003 2360.0458,-75.3003 2354.0458,-75.3003"/>
<text text-anchor="start" x="2273.5652" y="-58.6" font-family="Helvetica,sans-Serif" font-size="14.00" fill="#000000">gini = 0.346</text>
<text text-anchor="start" x="2268.1248" y="-41.8" font-family="Helvetica,sans-Serif" font-size="14.00" fill="#000000">samples = 63</text>
<text text-anchor="start" x="2261.8913" y="-25" font-family="Helvetica,sans-Serif" font-size="14.00" fill="#000000">value = [49, 14]</text>
<text text-anchor="start" x="2268.9081" y="-8.2" font-family="Helvetica,sans-Serif" font-size="14.00" fill="#000000">class = False</text>
</g>
<!-- 36&#45;&gt;38 -->
<g id="edge38" class="edge">
<title>36-&gt;38</title>
<path fill="none" stroke="#000000" d="M2278.6607,-110.9595C2282.366,-102.2704 2286.2431,-93.1781 2289.9564,-84.47"/>
<polygon fill="#000000" stroke="#000000" points="2293.2026,-85.7803 2293.9056,-75.2088 2286.7635,-83.0345 2293.2026,-85.7803"/>
</g>
<!-- 40 -->
<g id="node41" class="node">
<title>40</title>
<path fill="#46a3e7" stroke="#000000" d="M2540.2591,-203.2C2540.2591,-203.2 2435.6265,-203.2 2435.6265,-203.2 2429.6265,-203.2 2423.6265,-197.2 2423.6265,-191.2 2423.6265,-191.2 2423.6265,-123.2 2423.6265,-123.2 2423.6265,-117.2 2429.6265,-111.2 2435.6265,-111.2 2435.6265,-111.2 2540.2591,-111.2 2540.2591,-111.2 2546.2591,-111.2 2552.2591,-117.2 2552.2591,-123.2 2552.2591,-123.2 2552.2591,-191.2 2552.2591,-191.2 2552.2591,-197.2 2546.2591,-203.2 2540.2591,-203.2"/>
<text text-anchor="start" x="2431.5347" y="-186.6" font-family="Helvetica,sans-Serif" font-size="14.00" fill="#000000">ExitRates ≤ 0.027</text>
<text text-anchor="start" x="2451.5652" y="-169.8" font-family="Helvetica,sans-Serif" font-size="14.00" fill="#000000">gini = 0.115</text>
<text text-anchor="start" x="2442.2335" y="-153" font-family="Helvetica,sans-Serif" font-size="14.00" fill="#000000">samples = 244</text>
<text text-anchor="start" x="2436" y="-136.2" font-family="Helvetica,sans-Serif" font-size="14.00" fill="#000000">value = [15, 229]</text>
<text text-anchor="start" x="2446.9081" y="-119.4" font-family="Helvetica,sans-Serif" font-size="14.00" fill="#000000">class = False</text>
</g>
<!-- 39&#45;&gt;40 -->
<g id="edge40" class="edge">
<title>39-&gt;40</title>
<path fill="none" stroke="#000000" d="M2487.9428,-238.9891C2487.9428,-230.7417 2487.9428,-222.0661 2487.9428,-213.5724"/>
<polygon fill="#000000" stroke="#000000" points="2491.4429,-213.3431 2487.9428,-203.3431 2484.4429,-213.3431 2491.4429,-213.3431"/>
</g>
<!-- 43 -->
<g id="node44" class="node">
<title>43</title>
<path fill="#78bced" stroke="#000000" d="M2762.5505,-203.2C2762.5505,-203.2 2629.3351,-203.2 2629.3351,-203.2 2623.3351,-203.2 2617.3351,-197.2 2617.3351,-191.2 2617.3351,-191.2 2617.3351,-123.2 2617.3351,-123.2 2617.3351,-117.2 2623.3351,-111.2 2629.3351,-111.2 2629.3351,-111.2 2762.5505,-111.2 2762.5505,-111.2 2768.5505,-111.2 2774.5505,-117.2 2774.5505,-123.2 2774.5505,-123.2 2774.5505,-191.2 2774.5505,-191.2 2774.5505,-197.2 2768.5505,-203.2 2762.5505,-203.2"/>
<text text-anchor="start" x="2625.1392" y="-186.6" font-family="Helvetica,sans-Serif" font-size="14.00" fill="#000000">ProductRelated ≤ 25.5</text>
<text text-anchor="start" x="2659.5652" y="-169.8" font-family="Helvetica,sans-Serif" font-size="14.00" fill="#000000">gini = 0.366</text>
<text text-anchor="start" x="2650.2335" y="-153" font-family="Helvetica,sans-Serif" font-size="14.00" fill="#000000">samples = 257</text>
<text text-anchor="start" x="2644" y="-136.2" font-family="Helvetica,sans-Serif" font-size="14.00" fill="#000000">value = [62, 195]</text>
<text text-anchor="start" x="2654.9081" y="-119.4" font-family="Helvetica,sans-Serif" font-size="14.00" fill="#000000">class = False</text>
</g>
<!-- 39&#45;&gt;43 -->
<g id="edge43" class="edge">
<title>39-&gt;43</title>
<path fill="none" stroke="#000000" d="M2558.6523,-241.6864C2575.9594,-231.0359 2594.6415,-219.5393 2612.4835,-208.5596"/>
<polygon fill="#000000" stroke="#000000" points="2614.4829,-211.4389 2621.1651,-203.217 2610.8142,-205.4772 2614.4829,-211.4389"/>
</g>
<!-- 41 -->
<g id="node42" class="node">
<title>41</title>
<path fill="#3fa0e6" stroke="#000000" d="M2484.0458,-75.3003C2484.0458,-75.3003 2395.8398,-75.3003 2395.8398,-75.3003 2389.8398,-75.3003 2383.8398,-69.3003 2383.8398,-63.3003 2383.8398,-63.3003 2383.8398,-11.8997 2383.8398,-11.8997 2383.8398,-5.8997 2389.8398,.1003 2395.8398,.1003 2395.8398,.1003 2484.0458,.1003 2484.0458,.1003 2490.0458,.1003 2496.0458,-5.8997 2496.0458,-11.8997 2496.0458,-11.8997 2496.0458,-63.3003 2496.0458,-63.3003 2496.0458,-69.3003 2490.0458,-75.3003 2484.0458,-75.3003"/>
<text text-anchor="start" x="2403.5652" y="-58.6" font-family="Helvetica,sans-Serif" font-size="14.00" fill="#000000">gini = 0.056</text>
<text text-anchor="start" x="2394.2335" y="-41.8" font-family="Helvetica,sans-Serif" font-size="14.00" fill="#000000">samples = 208</text>
<text text-anchor="start" x="2391.8913" y="-25" font-family="Helvetica,sans-Serif" font-size="14.00" fill="#000000">value = [6, 202]</text>
<text text-anchor="start" x="2398.9081" y="-8.2" font-family="Helvetica,sans-Serif" font-size="14.00" fill="#000000">class = False</text>
</g>
<!-- 40&#45;&gt;41 -->
<g id="edge41" class="edge">
<title>40-&gt;41</title>
<path fill="none" stroke="#000000" d="M2469.3847,-110.9595C2465.9346,-102.3628 2462.326,-93.3715 2458.8651,-84.748"/>
<polygon fill="#000000" stroke="#000000" points="2462.0095,-83.1857 2455.0366,-75.2088 2455.5131,-85.7929 2462.0095,-83.1857"/>
</g>
<!-- 42 -->
<g id="node43" class="node">
<title>42</title>
<path fill="#7bbeee" stroke="#000000" d="M2606.2637,-75.3003C2606.2637,-75.3003 2525.6219,-75.3003 2525.6219,-75.3003 2519.6219,-75.3003 2513.6219,-69.3003 2513.6219,-63.3003 2513.6219,-63.3003 2513.6219,-11.8997 2513.6219,-11.8997 2513.6219,-5.8997 2519.6219,.1003 2525.6219,.1003 2525.6219,.1003 2606.2637,.1003 2606.2637,.1003 2612.2637,.1003 2618.2637,-5.8997 2618.2637,-11.8997 2618.2637,-11.8997 2618.2637,-63.3003 2618.2637,-63.3003 2618.2637,-69.3003 2612.2637,-75.3003 2606.2637,-75.3003"/>
<text text-anchor="start" x="2529.5652" y="-58.6" font-family="Helvetica,sans-Serif" font-size="14.00" fill="#000000">gini = 0.375</text>
<text text-anchor="start" x="2524.1248" y="-41.8" font-family="Helvetica,sans-Serif" font-size="14.00" fill="#000000">samples = 36</text>
<text text-anchor="start" x="2521.7826" y="-25" font-family="Helvetica,sans-Serif" font-size="14.00" fill="#000000">value = [9, 27]</text>
<text text-anchor="start" x="2524.9081" y="-8.2" font-family="Helvetica,sans-Serif" font-size="14.00" fill="#000000">class = False</text>
</g>
<!-- 40&#45;&gt;42 -->
<g id="edge42" class="edge">
<title>40-&gt;42</title>
<path fill="none" stroke="#000000" d="M2518.0996,-110.9595C2523.9473,-101.9931 2530.075,-92.5973 2535.9184,-83.6374"/>
<polygon fill="#000000" stroke="#000000" points="2538.8842,-85.4969 2541.4153,-75.2088 2533.0209,-81.673 2538.8842,-85.4969"/>
</g>
<!-- 44 -->
<g id="node45" class="node">
<title>44</title>
<path fill="#5caeea" stroke="#000000" d="M2743.8285,-75.3003C2743.8285,-75.3003 2648.0571,-75.3003 2648.0571,-75.3003 2642.0571,-75.3003 2636.0571,-69.3003 2636.0571,-63.3003 2636.0571,-63.3003 2636.0571,-11.8997 2636.0571,-11.8997 2636.0571,-5.8997 2642.0571,.1003 2648.0571,.1003 2648.0571,.1003 2743.8285,.1003 2743.8285,.1003 2749.8285,.1003 2755.8285,-5.8997 2755.8285,-11.8997 2755.8285,-11.8997 2755.8285,-63.3003 2755.8285,-63.3003 2755.8285,-69.3003 2749.8285,-75.3003 2743.8285,-75.3003"/>
<text text-anchor="start" x="2659.5652" y="-58.6" font-family="Helvetica,sans-Serif" font-size="14.00" fill="#000000">gini = 0.253</text>
<text text-anchor="start" x="2650.2335" y="-41.8" font-family="Helvetica,sans-Serif" font-size="14.00" fill="#000000">samples = 121</text>
<text text-anchor="start" x="2644" y="-25" font-family="Helvetica,sans-Serif" font-size="14.00" fill="#000000">value = [18, 103]</text>
<text text-anchor="start" x="2654.9081" y="-8.2" font-family="Helvetica,sans-Serif" font-size="14.00" fill="#000000">class = False</text>
</g>
<!-- 43&#45;&gt;44 -->
<g id="edge44" class="edge">
<title>43-&gt;44</title>
<path fill="none" stroke="#000000" d="M2695.9428,-110.9595C2695.9428,-102.5477 2695.9428,-93.7581 2695.9428,-85.3049"/>
<polygon fill="#000000" stroke="#000000" points="2699.4429,-85.2088 2695.9428,-75.2088 2692.4429,-85.2089 2699.4429,-85.2088"/>
</g>
<!-- 45 -->
<g id="node46" class="node">
<title>45</title>
<path fill="#98ccf1" stroke="#000000" d="M2874.0458,-75.3003C2874.0458,-75.3003 2785.8398,-75.3003 2785.8398,-75.3003 2779.8398,-75.3003 2773.8398,-69.3003 2773.8398,-63.3003 2773.8398,-63.3003 2773.8398,-11.8997 2773.8398,-11.8997 2773.8398,-5.8997 2779.8398,.1003 2785.8398,.1003 2785.8398,.1003 2874.0458,.1003 2874.0458,.1003 2880.0458,.1003 2886.0458,-5.8997 2886.0458,-11.8997 2886.0458,-11.8997 2886.0458,-63.3003 2886.0458,-63.3003 2886.0458,-69.3003 2880.0458,-75.3003 2874.0458,-75.3003"/>
<text text-anchor="start" x="2793.5652" y="-58.6" font-family="Helvetica,sans-Serif" font-size="14.00" fill="#000000">gini = 0.438</text>
<text text-anchor="start" x="2784.2335" y="-41.8" font-family="Helvetica,sans-Serif" font-size="14.00" fill="#000000">samples = 136</text>
<text text-anchor="start" x="2781.8913" y="-25" font-family="Helvetica,sans-Serif" font-size="14.00" fill="#000000">value = [44, 92]</text>
<text text-anchor="start" x="2788.9081" y="-8.2" font-family="Helvetica,sans-Serif" font-size="14.00" fill="#000000">class = False</text>
</g>
<!-- 43&#45;&gt;45 -->
<g id="edge45" class="edge">
<title>43-&gt;45</title>
<path fill="none" stroke="#000000" d="M2747.7507,-110.9595C2758.4181,-101.4385 2769.6279,-91.4333 2780.2194,-81.98"/>
<polygon fill="#000000" stroke="#000000" points="2782.6758,-84.4789 2787.8058,-75.2088 2778.0146,-79.2565 2782.6758,-84.4789"/>
</g>
<!-- 47 -->
<g id="node48" class="node">
<title>47</title>
<path fill="#f4caab" stroke="#000000" d="M3376.8581,-331.2C3376.8581,-331.2 3151.0275,-331.2 3151.0275,-331.2 3145.0275,-331.2 3139.0275,-325.2 3139.0275,-319.2 3139.0275,-319.2 3139.0275,-251.2 3139.0275,-251.2 3139.0275,-245.2 3145.0275,-239.2 3151.0275,-239.2 3151.0275,-239.2 3376.8581,-239.2 3376.8581,-239.2 3382.8581,-239.2 3388.8581,-245.2 3388.8581,-251.2 3388.8581,-251.2 3388.8581,-319.2 3388.8581,-319.2 3388.8581,-325.2 3382.8581,-331.2 3376.8581,-331.2"/>
<text text-anchor="start" x="3147.2353" y="-314.6" font-family="Helvetica,sans-Serif" font-size="14.00" fill="#000000">ProductRelated_Duration ≤ 1322.863</text>
<text text-anchor="start" x="3227.5652" y="-297.8" font-family="Helvetica,sans-Serif" font-size="14.00" fill="#000000">gini = 0.464</text>
<text text-anchor="start" x="3218.2335" y="-281" font-family="Helvetica,sans-Serif" font-size="14.00" fill="#000000">samples = 610</text>
<text text-anchor="start" x="3208.1087" y="-264.2" font-family="Helvetica,sans-Serif" font-size="14.00" fill="#000000">value = [387, 223]</text>
<text text-anchor="start" x="3222.9081" y="-247.4" font-family="Helvetica,sans-Serif" font-size="14.00" fill="#000000">class = False</text>
</g>
<!-- 46&#45;&gt;47 -->
<g id="edge47" class="edge">
<title>46-&gt;47</title>
<path fill="none" stroke="#000000" d="M3263.9428,-366.9891C3263.9428,-358.7417 3263.9428,-350.0661 3263.9428,-341.5724"/>
<polygon fill="#000000" stroke="#000000" points="3267.4429,-341.3431 3263.9428,-331.3431 3260.4429,-341.3431 3267.4429,-341.3431"/>
</g>
<!-- 54 -->
<g id="node55" class="node">
<title>54</title>
<path fill="#d8ecfa" stroke="#000000" d="M3552.6114,-331.2C3552.6114,-331.2 3449.2742,-331.2 3449.2742,-331.2 3443.2742,-331.2 3437.2742,-325.2 3437.2742,-319.2 3437.2742,-319.2 3437.2742,-251.2 3437.2742,-251.2 3437.2742,-245.2 3443.2742,-239.2 3449.2742,-239.2 3449.2742,-239.2 3552.6114,-239.2 3552.6114,-239.2 3558.6114,-239.2 3564.6114,-245.2 3564.6114,-251.2 3564.6114,-251.2 3564.6114,-319.2 3564.6114,-319.2 3564.6114,-325.2 3558.6114,-331.2 3552.6114,-331.2"/>
<text text-anchor="start" x="3448.426" y="-314.6" font-family="Helvetica,sans-Serif" font-size="14.00" fill="#000000">ExitRates ≤ 0.02</text>
<text text-anchor="start" x="3464.5652" y="-297.8" font-family="Helvetica,sans-Serif" font-size="14.00" fill="#000000">gini = 0.494</text>
<text text-anchor="start" x="3455.2335" y="-281" font-family="Helvetica,sans-Serif" font-size="14.00" fill="#000000">samples = 453</text>
<text text-anchor="start" x="3445.1087" y="-264.2" font-family="Helvetica,sans-Serif" font-size="14.00" fill="#000000">value = [202, 251]</text>
<text text-anchor="start" x="3459.9081" y="-247.4" font-family="Helvetica,sans-Serif" font-size="14.00" fill="#000000">class = False</text>
</g>
<!-- 46&#45;&gt;54 -->
<g id="edge54" class="edge">
<title>46-&gt;54</title>
<path fill="none" stroke="#000000" d="M3327.7662,-378.73C3358.72,-362.0123 3396.0489,-341.8516 3428.1114,-324.5351"/>
<polygon fill="#000000" stroke="#000000" points="3429.8699,-327.5633 3437.0054,-319.7316 3426.5434,-321.4041 3429.8699,-327.5633"/>
</g>
<!-- 48 -->
<g id="node49" class="node">
<title>48</title>
<path fill="#ffffff" stroke="#000000" d="M3176.9299,-203.2C3176.9299,-203.2 2982.9557,-203.2 2982.9557,-203.2 2976.9557,-203.2 2970.9557,-197.2 2970.9557,-191.2 2970.9557,-191.2 2970.9557,-123.2 2970.9557,-123.2 2970.9557,-117.2 2976.9557,-111.2 2982.9557,-111.2 2982.9557,-111.2 3176.9299,-111.2 3176.9299,-111.2 3182.9299,-111.2 3188.9299,-117.2 3188.9299,-123.2 3188.9299,-123.2 3188.9299,-191.2 3188.9299,-191.2 3188.9299,-197.2 3182.9299,-203.2 3176.9299,-203.2"/>
<text text-anchor="start" x="2979.1995" y="-186.6" font-family="Helvetica,sans-Serif" font-size="14.00" fill="#000000">Administrative_Duration ≤ 4.692</text>
<text text-anchor="start" x="3051.3478" y="-169.8" font-family="Helvetica,sans-Serif" font-size="14.00" fill="#000000">gini = 0.5</text>
<text text-anchor="start" x="3034.2335" y="-153" font-family="Helvetica,sans-Serif" font-size="14.00" fill="#000000">samples = 222</text>
<text text-anchor="start" x="3024.1087" y="-136.2" font-family="Helvetica,sans-Serif" font-size="14.00" fill="#000000">value = [111, 111]</text>
<text text-anchor="start" x="3038.9081" y="-119.4" font-family="Helvetica,sans-Serif" font-size="14.00" fill="#000000">class = False</text>
</g>
<!-- 47&#45;&gt;48 -->
<g id="edge48" class="edge">
<title>47-&gt;48</title>
<path fill="none" stroke="#000000" d="M3197.7745,-239.1699C3183.736,-229.404 3168.8242,-219.0305 3154.4982,-209.0646"/>
<polygon fill="#000000" stroke="#000000" points="3156.3498,-206.0891 3146.142,-203.2516 3152.3524,-211.8355 3156.3498,-206.0891"/>
</g>
<!-- 51 -->
<g id="node52" class="node">
<title>51</title>
<path fill="#f0b489" stroke="#000000" d="M3347.1209,-203.2C3347.1209,-203.2 3218.7647,-203.2 3218.7647,-203.2 3212.7647,-203.2 3206.7647,-197.2 3206.7647,-191.2 3206.7647,-191.2 3206.7647,-123.2 3206.7647,-123.2 3206.7647,-117.2 3212.7647,-111.2 3218.7647,-111.2 3218.7647,-111.2 3347.1209,-111.2 3347.1209,-111.2 3353.1209,-111.2 3359.1209,-117.2 3359.1209,-123.2 3359.1209,-123.2 3359.1209,-191.2 3359.1209,-191.2 3359.1209,-197.2 3353.1209,-203.2 3347.1209,-203.2"/>
<text text-anchor="start" x="3214.8538" y="-186.6" font-family="Helvetica,sans-Serif" font-size="14.00" fill="#000000">PageValues ≤ 15.508</text>
<text text-anchor="start" x="3246.5652" y="-169.8" font-family="Helvetica,sans-Serif" font-size="14.00" fill="#000000">gini = 0.411</text>
<text text-anchor="start" x="3237.2335" y="-153" font-family="Helvetica,sans-Serif" font-size="14.00" fill="#000000">samples = 388</text>
<text text-anchor="start" x="3227.1087" y="-136.2" font-family="Helvetica,sans-Serif" font-size="14.00" fill="#000000">value = [276, 112]</text>
<text text-anchor="start" x="3241.9081" y="-119.4" font-family="Helvetica,sans-Serif" font-size="14.00" fill="#000000">class = False</text>
</g>
<!-- 47&#45;&gt;51 -->
<g id="edge51" class="edge">
<title>47-&gt;51</title>
<path fill="none" stroke="#000000" d="M3270.8022,-238.9891C3272.0399,-230.651 3273.3425,-221.8754 3274.6166,-213.2925"/>
<polygon fill="#000000" stroke="#000000" points="3278.0871,-213.7487 3276.0934,-203.3431 3271.163,-212.7208 3278.0871,-213.7487"/>
</g>
<!-- 49 -->
<g id="node50" class="node">
<title>49</title>
<path fill="#8ac5f0" stroke="#000000" d="M3004.0458,-75.3003C3004.0458,-75.3003 2915.8398,-75.3003 2915.8398,-75.3003 2909.8398,-75.3003 2903.8398,-69.3003 2903.8398,-63.3003 2903.8398,-63.3003 2903.8398,-11.8997 2903.8398,-11.8997 2903.8398,-5.8997 2909.8398,.1003 2915.8398,.1003 2915.8398,.1003 3004.0458,.1003 3004.0458,.1003 3010.0458,.1003 3016.0458,-5.8997 3016.0458,-11.8997 3016.0458,-11.8997 3016.0458,-63.3003 3016.0458,-63.3003 3016.0458,-69.3003 3010.0458,-75.3003 3004.0458,-75.3003"/>
<text text-anchor="start" x="2923.5652" y="-58.6" font-family="Helvetica,sans-Serif" font-size="14.00" fill="#000000">gini = 0.413</text>
<text text-anchor="start" x="2918.1248" y="-41.8" font-family="Helvetica,sans-Serif" font-size="14.00" fill="#000000">samples = 55</text>
<text text-anchor="start" x="2911.8913" y="-25" font-family="Helvetica,sans-Serif" font-size="14.00" fill="#000000">value = [16, 39]</text>
<text text-anchor="start" x="2918.9081" y="-8.2" font-family="Helvetica,sans-Serif" font-size="14.00" fill="#000000">class = False</text>
</g>
<!-- 48&#45;&gt;49 -->
<g id="edge49" class="edge">
<title>48-&gt;49</title>
<path fill="none" stroke="#000000" d="M3033.5477,-110.9595C3024.1803,-101.6233 3014.3458,-91.8217 3005.0244,-82.5313"/>
<polygon fill="#000000" stroke="#000000" points="3007.231,-79.7891 2997.6774,-75.2088 3002.2895,-84.7471 3007.231,-79.7891"/>
</g>
<!-- 50 -->
<g id="node51" class="node">
<title>50</title>
<path fill="#f9e0cf" stroke="#000000" d="M3134.0458,-75.3003C3134.0458,-75.3003 3045.8398,-75.3003 3045.8398,-75.3003 3039.8398,-75.3003 3033.8398,-69.3003 3033.8398,-63.3003 3033.8398,-63.3003 3033.8398,-11.8997 3033.8398,-11.8997 3033.8398,-5.8997 3039.8398,.1003 3045.8398,.1003 3045.8398,.1003 3134.0458,.1003 3134.0458,.1003 3140.0458,.1003 3146.0458,-5.8997 3146.0458,-11.8997 3146.0458,-11.8997 3146.0458,-63.3003 3146.0458,-63.3003 3146.0458,-69.3003 3140.0458,-75.3003 3134.0458,-75.3003"/>
<text text-anchor="start" x="3053.5652" y="-58.6" font-family="Helvetica,sans-Serif" font-size="14.00" fill="#000000">gini = 0.491</text>
<text text-anchor="start" x="3044.2335" y="-41.8" font-family="Helvetica,sans-Serif" font-size="14.00" fill="#000000">samples = 167</text>
<text text-anchor="start" x="3041.8913" y="-25" font-family="Helvetica,sans-Serif" font-size="14.00" fill="#000000">value = [95, 72]</text>
<text text-anchor="start" x="3048.9081" y="-8.2" font-family="Helvetica,sans-Serif" font-size="14.00" fill="#000000">class = False</text>
</g>
<!-- 48&#45;&gt;50 -->
<g id="edge50" class="edge">
<title>48-&gt;50</title>
<path fill="none" stroke="#000000" d="M3083.8091,-110.9595C3084.5124,-102.5477 3085.2473,-93.7581 3085.9541,-85.3049"/>
<polygon fill="#000000" stroke="#000000" points="3089.4528,-85.4657 3086.7982,-75.2088 3082.4771,-84.8824 3089.4528,-85.4657"/>
</g>
<!-- 52 -->
<g id="node53" class="node">
<title>52</title>
<path fill="#eeab7b" stroke="#000000" d="M3271.8285,-75.3003C3271.8285,-75.3003 3176.0571,-75.3003 3176.0571,-75.3003 3170.0571,-75.3003 3164.0571,-69.3003 3164.0571,-63.3003 3164.0571,-63.3003 3164.0571,-11.8997 3164.0571,-11.8997 3164.0571,-5.8997 3170.0571,.1003 3176.0571,.1003 3176.0571,.1003 3271.8285,.1003 3271.8285,.1003 3277.8285,.1003 3283.8285,-5.8997 3283.8285,-11.8997 3283.8285,-11.8997 3283.8285,-63.3003 3283.8285,-63.3003 3283.8285,-69.3003 3277.8285,-75.3003 3271.8285,-75.3003"/>
<text text-anchor="start" x="3187.5652" y="-58.6" font-family="Helvetica,sans-Serif" font-size="14.00" fill="#000000">gini = 0.376</text>
<text text-anchor="start" x="3178.2335" y="-41.8" font-family="Helvetica,sans-Serif" font-size="14.00" fill="#000000">samples = 275</text>
<text text-anchor="start" x="3172" y="-25" font-family="Helvetica,sans-Serif" font-size="14.00" fill="#000000">value = [206, 69]</text>
<text text-anchor="start" x="3182.9081" y="-8.2" font-family="Helvetica,sans-Serif" font-size="14.00" fill="#000000">class = False</text>
</g>
<!-- 51&#45;&gt;52 -->
<g id="edge52" class="edge">
<title>51-&gt;52</title>
<path fill="none" stroke="#000000" d="M3260.1319,-110.9595C3255.7998,-102.178 3251.2646,-92.9846 3246.9273,-84.1922"/>
<polygon fill="#000000" stroke="#000000" points="3250.0586,-82.6285 3242.4956,-75.2088 3243.7809,-85.7254 3250.0586,-82.6285"/>
</g>
<!-- 53 -->
<g id="node54" class="node">
<title>53</title>
<path fill="#f5ceb3" stroke="#000000" d="M3402.0458,-75.3003C3402.0458,-75.3003 3313.8398,-75.3003 3313.8398,-75.3003 3307.8398,-75.3003 3301.8398,-69.3003 3301.8398,-63.3003 3301.8398,-63.3003 3301.8398,-11.8997 3301.8398,-11.8997 3301.8398,-5.8997 3307.8398,.1003 3313.8398,.1003 3313.8398,.1003 3402.0458,.1003 3402.0458,.1003 3408.0458,.1003 3414.0458,-5.8997 3414.0458,-11.8997 3414.0458,-11.8997 3414.0458,-63.3003 3414.0458,-63.3003 3414.0458,-69.3003 3408.0458,-75.3003 3402.0458,-75.3003"/>
<text text-anchor="start" x="3321.5652" y="-58.6" font-family="Helvetica,sans-Serif" font-size="14.00" fill="#000000">gini = 0.471</text>
<text text-anchor="start" x="3312.2335" y="-41.8" font-family="Helvetica,sans-Serif" font-size="14.00" fill="#000000">samples = 113</text>
<text text-anchor="start" x="3309.8913" y="-25" font-family="Helvetica,sans-Serif" font-size="14.00" fill="#000000">value = [70, 43]</text>
<text text-anchor="start" x="3316.9081" y="-8.2" font-family="Helvetica,sans-Serif" font-size="14.00" fill="#000000">class = False</text>
</g>
<!-- 51&#45;&gt;53 -->
<g id="edge53" class="edge">
<title>51-&gt;53</title>
<path fill="none" stroke="#000000" d="M3311.9398,-110.9595C3317.5046,-102.0855 3323.333,-92.791 3328.8993,-83.9147"/>
<polygon fill="#000000" stroke="#000000" points="3332.0111,-85.5403 3334.3587,-75.2088 3326.0807,-81.8214 3332.0111,-85.5403"/>
</g>
<!-- 55 -->
<g id="node56" class="node">
<title>55</title>
<path fill="#9dcff2" stroke="#000000" d="M3548.8285,-203.2C3548.8285,-203.2 3453.0571,-203.2 3453.0571,-203.2 3447.0571,-203.2 3441.0571,-197.2 3441.0571,-191.2 3441.0571,-191.2 3441.0571,-123.2 3441.0571,-123.2 3441.0571,-117.2 3447.0571,-111.2 3453.0571,-111.2 3453.0571,-111.2 3548.8285,-111.2 3548.8285,-111.2 3554.8285,-111.2 3560.8285,-117.2 3560.8285,-123.2 3560.8285,-123.2 3560.8285,-191.2 3560.8285,-191.2 3560.8285,-197.2 3554.8285,-203.2 3548.8285,-203.2"/>
<text text-anchor="start" x="3462.8159" y="-186.6" font-family="Helvetica,sans-Serif" font-size="14.00" fill="#000000">Month ≤ 7.5</text>
<text text-anchor="start" x="3464.5652" y="-169.8" font-family="Helvetica,sans-Serif" font-size="14.00" fill="#000000">gini = 0.446</text>
<text text-anchor="start" x="3455.2335" y="-153" font-family="Helvetica,sans-Serif" font-size="14.00" fill="#000000">samples = 223</text>
<text text-anchor="start" x="3449" y="-136.2" font-family="Helvetica,sans-Serif" font-size="14.00" fill="#000000">value = [75, 148]</text>
<text text-anchor="start" x="3459.9081" y="-119.4" font-family="Helvetica,sans-Serif" font-size="14.00" fill="#000000">class = False</text>
</g>
<!-- 54&#45;&gt;55 -->
<g id="edge55" class="edge">
<title>54-&gt;55</title>
<path fill="none" stroke="#000000" d="M3500.9428,-238.9891C3500.9428,-230.7417 3500.9428,-222.0661 3500.9428,-213.5724"/>
<polygon fill="#000000" stroke="#000000" points="3504.4429,-213.3431 3500.9428,-203.3431 3497.4429,-213.3431 3504.4429,-213.3431"/>
</g>
<!-- 58 -->
<g id="node59" class="node">
<title>58</title>
<path fill="#fae7da" stroke="#000000" d="M3811.6114,-203.2C3811.6114,-203.2 3708.2742,-203.2 3708.2742,-203.2 3702.2742,-203.2 3696.2742,-197.2 3696.2742,-191.2 3696.2742,-191.2 3696.2742,-123.2 3696.2742,-123.2 3696.2742,-117.2 3702.2742,-111.2 3708.2742,-111.2 3708.2742,-111.2 3811.6114,-111.2 3811.6114,-111.2 3817.6114,-111.2 3823.6114,-117.2 3823.6114,-123.2 3823.6114,-123.2 3823.6114,-191.2 3823.6114,-191.2 3823.6114,-197.2 3817.6114,-203.2 3811.6114,-203.2"/>
<text text-anchor="start" x="3721.8159" y="-186.6" font-family="Helvetica,sans-Serif" font-size="14.00" fill="#000000">Month ≤ 8.5</text>
<text text-anchor="start" x="3723.5652" y="-169.8" font-family="Helvetica,sans-Serif" font-size="14.00" fill="#000000">gini = 0.495</text>
<text text-anchor="start" x="3714.2335" y="-153" font-family="Helvetica,sans-Serif" font-size="14.00" fill="#000000">samples = 230</text>
<text text-anchor="start" x="3704.1087" y="-136.2" font-family="Helvetica,sans-Serif" font-size="14.00" fill="#000000">value = [127, 103]</text>
<text text-anchor="start" x="3718.9081" y="-119.4" font-family="Helvetica,sans-Serif" font-size="14.00" fill="#000000">class = False</text>
</g>
<!-- 54&#45;&gt;58 -->
<g id="edge58" class="edge">
<title>54-&gt;58</title>
<path fill="none" stroke="#000000" d="M3564.633,-253.7237C3601.6563,-235.4266 3648.4535,-212.299 3686.9581,-193.2697"/>
<polygon fill="#000000" stroke="#000000" points="3688.6353,-196.3449 3696.0495,-188.7766 3685.5338,-190.0695 3688.6353,-196.3449"/>
</g>
<!-- 56 -->
<g id="node57" class="node">
<title>56</title>
<path fill="#8ac5f0" stroke="#000000" d="M3539.8285,-75.3003C3539.8285,-75.3003 3444.0571,-75.3003 3444.0571,-75.3003 3438.0571,-75.3003 3432.0571,-69.3003 3432.0571,-63.3003 3432.0571,-63.3003 3432.0571,-11.8997 3432.0571,-11.8997 3432.0571,-5.8997 3438.0571,.1003 3444.0571,.1003 3444.0571,.1003 3539.8285,.1003 3539.8285,.1003 3545.8285,.1003 3551.8285,-5.8997 3551.8285,-11.8997 3551.8285,-11.8997 3551.8285,-63.3003 3551.8285,-63.3003 3551.8285,-69.3003 3545.8285,-75.3003 3539.8285,-75.3003"/>
<text text-anchor="start" x="3455.5652" y="-58.6" font-family="Helvetica,sans-Serif" font-size="14.00" fill="#000000">gini = 0.412</text>
<text text-anchor="start" x="3446.2335" y="-41.8" font-family="Helvetica,sans-Serif" font-size="14.00" fill="#000000">samples = 186</text>
<text text-anchor="start" x="3440" y="-25" font-family="Helvetica,sans-Serif" font-size="14.00" fill="#000000">value = [54, 132]</text>
<text text-anchor="start" x="3450.9081" y="-8.2" font-family="Helvetica,sans-Serif" font-size="14.00" fill="#000000">class = False</text>
</g>
<!-- 55&#45;&gt;56 -->
<g id="edge56" class="edge">
<title>55-&gt;56</title>
<path fill="none" stroke="#000000" d="M3497.4632,-110.9595C3496.8302,-102.5477 3496.1687,-93.7581 3495.5326,-85.3049"/>
<polygon fill="#000000" stroke="#000000" points="3499.0135,-84.918 3494.7729,-75.2088 3492.0332,-85.4433 3499.0135,-84.918"/>
</g>
<!-- 57 -->
<g id="node58" class="node">
<title>57</title>
<path fill="#f9e1d0" stroke="#000000" d="M3670.0458,-75.3003C3670.0458,-75.3003 3581.8398,-75.3003 3581.8398,-75.3003 3575.8398,-75.3003 3569.8398,-69.3003 3569.8398,-63.3003 3569.8398,-63.3003 3569.8398,-11.8997 3569.8398,-11.8997 3569.8398,-5.8997 3575.8398,.1003 3581.8398,.1003 3581.8398,.1003 3670.0458,.1003 3670.0458,.1003 3676.0458,.1003 3682.0458,-5.8997 3682.0458,-11.8997 3682.0458,-11.8997 3682.0458,-63.3003 3682.0458,-63.3003 3682.0458,-69.3003 3676.0458,-75.3003 3670.0458,-75.3003"/>
<text text-anchor="start" x="3589.5652" y="-58.6" font-family="Helvetica,sans-Serif" font-size="14.00" fill="#000000">gini = 0.491</text>
<text text-anchor="start" x="3584.1248" y="-41.8" font-family="Helvetica,sans-Serif" font-size="14.00" fill="#000000">samples = 37</text>
<text text-anchor="start" x="3577.8913" y="-25" font-family="Helvetica,sans-Serif" font-size="14.00" fill="#000000">value = [21, 16]</text>
<text text-anchor="start" x="3584.9081" y="-8.2" font-family="Helvetica,sans-Serif" font-size="14.00" fill="#000000">class = False</text>
</g>
<!-- 55&#45;&gt;57 -->
<g id="edge57" class="edge">
<title>55-&gt;57</title>
<path fill="none" stroke="#000000" d="M3549.2711,-110.9595C3559.1254,-101.5309 3569.4759,-91.6276 3579.2711,-82.2555"/>
<polygon fill="#000000" stroke="#000000" points="3581.8301,-84.651 3586.6359,-75.2088 3576.9908,-79.5932 3581.8301,-84.651"/>
</g>
<!-- 59 -->
<g id="node60" class="node">
<title>59</title>
<path fill="#fdf5f0" stroke="#000000" d="M3807.8285,-75.3003C3807.8285,-75.3003 3712.0571,-75.3003 3712.0571,-75.3003 3706.0571,-75.3003 3700.0571,-69.3003 3700.0571,-63.3003 3700.0571,-63.3003 3700.0571,-11.8997 3700.0571,-11.8997 3700.0571,-5.8997 3706.0571,.1003 3712.0571,.1003 3712.0571,.1003 3807.8285,.1003 3807.8285,.1003 3813.8285,.1003 3819.8285,-5.8997 3819.8285,-11.8997 3819.8285,-11.8997 3819.8285,-63.3003 3819.8285,-63.3003 3819.8285,-69.3003 3813.8285,-75.3003 3807.8285,-75.3003"/>
<text text-anchor="start" x="3723.5652" y="-58.6" font-family="Helvetica,sans-Serif" font-size="14.00" fill="#000000">gini = 0.499</text>
<text text-anchor="start" x="3714.2335" y="-41.8" font-family="Helvetica,sans-Serif" font-size="14.00" fill="#000000">samples = 204</text>
<text text-anchor="start" x="3708" y="-25" font-family="Helvetica,sans-Serif" font-size="14.00" fill="#000000">value = [106, 98]</text>
<text text-anchor="start" x="3718.9081" y="-8.2" font-family="Helvetica,sans-Serif" font-size="14.00" fill="#000000">class = False</text>
</g>
<!-- 58&#45;&gt;59 -->
<g id="edge59" class="edge">
<title>58-&gt;59</title>
<path fill="none" stroke="#000000" d="M3759.9428,-110.9595C3759.9428,-102.5477 3759.9428,-93.7581 3759.9428,-85.3049"/>
<polygon fill="#000000" stroke="#000000" points="3763.4429,-85.2088 3759.9428,-75.2088 3756.4429,-85.2089 3763.4429,-85.2088"/>
</g>
<!-- 60 -->
<g id="node61" class="node">
<title>60</title>
<path fill="#eb9f68" stroke="#000000" d="M3930.2637,-75.3003C3930.2637,-75.3003 3849.6219,-75.3003 3849.6219,-75.3003 3843.6219,-75.3003 3837.6219,-69.3003 3837.6219,-63.3003 3837.6219,-63.3003 3837.6219,-11.8997 3837.6219,-11.8997 3837.6219,-5.8997 3843.6219,.1003 3849.6219,.1003 3849.6219,.1003 3930.2637,.1003 3930.2637,.1003 3936.2637,.1003 3942.2637,-5.8997 3942.2637,-11.8997 3942.2637,-11.8997 3942.2637,-63.3003 3942.2637,-63.3003 3942.2637,-69.3003 3936.2637,-75.3003 3930.2637,-75.3003"/>
<text text-anchor="start" x="3853.5652" y="-58.6" font-family="Helvetica,sans-Serif" font-size="14.00" fill="#000000">gini = 0.311</text>
<text text-anchor="start" x="3848.1248" y="-41.8" font-family="Helvetica,sans-Serif" font-size="14.00" fill="#000000">samples = 26</text>
<text text-anchor="start" x="3845.7826" y="-25" font-family="Helvetica,sans-Serif" font-size="14.00" fill="#000000">value = [21, 5]</text>
<text text-anchor="start" x="3848.9081" y="-8.2" font-family="Helvetica,sans-Serif" font-size="14.00" fill="#000000">class = False</text>
</g>
<!-- 58&#45;&gt;60 -->
<g id="edge60" class="edge">
<title>58-&gt;60</title>
<path fill="none" stroke="#000000" d="M3810.2042,-110.9595C3820.5532,-101.4385 3831.4283,-91.4333 3841.7037,-81.98"/>
<polygon fill="#000000" stroke="#000000" points="3844.074,-84.5552 3849.0636,-75.2088 3839.3346,-79.4037 3844.074,-84.5552"/>
</g>
</g>
</svg>